<svg width="50" height="50" viewBox="0 0 50 50" fill="none" xmlns="http://www.w3.org/2000/svg">
<g clip-path="url(#clip0_2010_56)">
<path d="M14.2529 18.1591C14.2529 19.188 14.3181 20.0222 14.4321 20.634C14.5625 21.2458 14.7255 21.9132 14.9536 22.6363C15.0351 22.8587 15.0677 23.0812 15.0677 23.2759C15.0677 23.554 14.9699 23.832 14.758 24.1101L13.7314 25.2781C13.5847 25.4449 13.4381 25.5284 13.3077 25.5284C13.1448 25.5284 12.9818 25.3893 12.8188 25.139C12.5907 24.7219 12.3951 24.277 12.2322 23.832C12.0692 23.3593 11.9063 22.8309 11.727 22.1913C10.4559 24.7497 8.85893 26.0289 6.93602 26.0289C5.56717 26.0289 4.47534 25.3615 3.67684 24.0267C2.87834 22.6919 2.47095 20.9121 2.47095 18.6874C2.47095 16.3237 2.95982 14.4049 3.95387 12.9588C4.94792 11.5128 6.26789 10.7898 7.94636 10.7898C8.50042 10.7898 9.07078 10.8732 9.67373 11.0122C10.2767 11.1513 10.8959 11.3738 11.5478 11.624V9.59399C11.5478 7.48053 11.287 6.00667 10.7818 5.14461C10.2604 4.28254 9.3804 3.86541 8.12562 3.86541C7.55526 3.86541 6.96861 3.97664 6.36566 4.22692C5.76272 4.4772 5.17606 4.78309 4.60571 5.17241C4.34497 5.36707 4.14942 5.47831 4.03535 5.53393C3.92128 5.58954 3.8398 5.61735 3.77462 5.61735C3.54648 5.61735 3.4324 5.33927 3.4324 4.75528V3.39266C3.4324 2.94772 3.465 2.61402 3.54648 2.41935C3.62796 2.22469 3.77462 2.03003 4.00276 1.83537C4.57312 1.33482 5.25754 0.917686 6.05604 0.583982C6.85454 0.222469 7.70193 0.0556173 8.5982 0.0556173C10.5374 0.0556173 11.9552 0.806451 12.8677 2.30812C13.764 3.80979 14.2203 6.0901 14.2203 9.14906V18.1591H14.2529ZM7.63674 22.386C8.17451 22.386 8.72857 22.2191 9.31522 21.8854C9.90187 21.5517 10.4233 20.9399 10.8633 20.1057C11.1241 19.5773 11.3196 18.9933 11.4174 18.3259C11.5152 17.6585 11.5803 16.8521 11.5803 15.9066V14.7386C11.1078 14.5439 10.6026 14.3771 10.0811 14.2659C9.55966 14.1546 9.05449 14.099 8.54931 14.099C7.45749 14.099 6.65899 14.4605 6.12123 15.2113C5.58346 15.9622 5.32273 17.0189 5.32273 18.4093C5.32273 19.7164 5.51828 20.6897 5.92567 21.3571C6.31678 22.0523 6.88713 22.386 7.63674 22.386ZM20.7223 25.3893C20.429 25.3893 20.2335 25.3059 20.1031 25.1112C19.9727 24.9444 19.8587 24.5551 19.7609 24.0267L15.9313 2.53059C15.8336 1.97442 15.7847 1.6129 15.7847 1.41824C15.7847 0.973304 15.9151 0.723026 16.1758 0.723026H17.7728C18.0824 0.723026 18.2943 0.806452 18.4083 1.00111C18.5387 1.16796 18.6365 1.55729 18.7342 2.08565L21.4719 20.495L24.0141 2.08565C24.0956 1.52948 24.1934 1.16796 24.3237 1.00111C24.4541 0.83426 24.6822 0.723026 24.9756 0.723026H26.2792C26.5889 0.723026 26.8007 0.806452 26.9311 1.00111C27.0614 1.16796 27.1755 1.55729 27.2407 2.08565L29.8154 20.7175L32.6346 2.08565C32.7324 1.52948 32.8465 1.16796 32.9605 1.00111C33.0909 0.83426 33.3028 0.723026 33.5961 0.723026H35.1116C35.3723 0.723026 35.519 0.945495 35.519 1.41824C35.519 1.55729 35.5027 1.69633 35.4864 1.86318C35.4701 2.03003 35.4375 2.2525 35.3723 2.5584L31.445 24.0545C31.3473 24.6107 31.2332 24.9722 31.1028 25.139C30.9724 25.3059 30.7606 25.4171 30.4836 25.4171H29.0821C28.7725 25.4171 28.5607 25.3337 28.4303 25.139C28.2999 24.9444 28.1859 24.5829 28.1207 24.0267L25.5948 6.0901L23.0852 23.9989C23.0038 24.5551 22.906 24.9166 22.7756 25.1112C22.6453 25.3059 22.4171 25.3893 22.1238 25.3893H20.7223ZM41.6625 26.1402C40.8152 26.1402 39.9678 25.9733 39.153 25.6396C38.3382 25.3059 37.7026 24.9444 37.279 24.5273C37.0182 24.277 36.839 23.9989 36.7738 23.7486C36.7086 23.4983 36.676 23.2202 36.676 22.97V21.5517C36.676 20.9677 36.8064 20.6897 37.0508 20.6897C37.1486 20.6897 37.2464 20.7175 37.3441 20.7731C37.4419 20.8287 37.5886 20.9399 37.7515 21.0512C38.3056 21.4683 38.9085 21.802 39.5441 22.0245C40.1959 22.2469 40.8315 22.3582 41.4833 22.3582C42.5099 22.3582 43.3084 22.0523 43.8625 21.4405C44.4166 20.8287 44.7099 19.9388 44.7099 18.7987C44.7099 18.02 44.5632 17.3804 44.2699 16.8521C43.9766 16.3237 43.4225 15.8509 42.624 15.406L40.2611 14.1546C39.0715 13.515 38.1915 12.5695 37.6538 11.3181C37.116 10.0946 36.839 8.73193 36.839 7.28587C36.839 6.11791 36.9856 5.08899 37.279 4.19911C37.5723 3.30923 37.9634 2.53059 38.4523 1.9188C38.9411 1.2792 39.4952 0.806452 40.147 0.472748C40.7989 0.139043 41.4833 0 42.2003 0C42.5588 0 42.9336 0.0278087 43.2921 0.111235C43.6669 0.194661 44.0092 0.305895 44.3514 0.41713C44.6773 0.556174 44.9869 0.695217 45.2802 0.862069C45.5736 1.02892 45.8017 1.19577 45.9647 1.36263C46.1928 1.58509 46.3558 1.80756 46.4535 2.05784C46.5513 2.28031 46.6002 2.58621 46.6002 2.97553V4.28254C46.6002 4.86652 46.4698 5.17241 46.2254 5.17241C46.095 5.17241 45.8832 5.06118 45.6062 4.83871C44.6773 4.11568 43.6343 3.75417 42.4773 3.75417C41.5485 3.75417 40.8152 4.00445 40.31 4.53281C39.8048 5.06118 39.5441 5.86763 39.5441 7.00779C39.5441 7.78643 39.707 8.45384 40.033 8.9822C40.3589 9.51057 40.9618 10.0389 41.8255 10.5117L44.1395 11.7631C45.3128 12.4027 46.1602 13.2925 46.6654 14.4327C47.1706 15.5729 47.415 16.8799 47.415 18.3259C47.415 19.5217 47.2683 20.6062 46.9913 21.5517C46.698 22.4972 46.3069 23.3315 45.8017 23.9989C45.2965 24.6941 44.6936 25.1947 43.9929 25.5562C43.2595 25.9455 42.4936 26.1402 41.6625 26.1402Z" fill="#495057"/>
<path fill-rule="evenodd" clip-rule="evenodd" d="M44.7425 39.6552C39.3812 46.4127 31.5917 50 24.8941 50C15.5077 50 7.05012 44.0767 0.662132 34.2325C0.15696 33.4538 0.613245 32.3971 1.21619 33.0089C8.12565 39.8498 16.6484 43.9933 25.4645 43.9933C31.4125 43.9933 37.9471 41.8799 43.9603 37.5417C44.8566 36.8465 45.6225 38.5428 44.7425 39.6552Z" fill="#495057"/>
<path fill-rule="evenodd" clip-rule="evenodd" d="M46.9751 35.317C46.2907 33.8154 42.4449 34.594 40.7012 34.9555C40.1797 35.0668 40.0983 34.2881 40.5708 33.7041C43.6345 30.0334 48.6699 31.0901 49.2565 32.3137C49.8432 33.5651 49.0936 42.158 46.2255 46.2737C45.7855 46.9133 45.3618 46.5796 45.5574 45.7453C46.2092 42.9922 47.6595 36.7909 46.9751 35.317Z" fill="#495057"/>
</g>
<defs>
<clipPath id="clip0_2010_56">
<rect width="50" height="50" fill="white"/>
</clipPath>
</defs>
</svg>
