<svg width="50" height="50" viewBox="0 0 50 50" fill="none" xmlns="http://www.w3.org/2000/svg">
<path d="M16.6787 0.0506397H31.4567L16.1156 48.2498C16.0372 48.4959 15.923 48.7276 15.7772 48.9365C15.6318 49.1456 15.4564 49.3289 15.2572 49.4804C15.058 49.6319 14.8383 49.7497 14.6048 49.8291C14.3713 49.9085 14.1278 49.9495 13.8831 49.9495H2.38214C2.0088 49.9495 1.64046 49.8555 1.30833 49.6742C0.975846 49.4935 0.68884 49.2313 0.471135 48.9094C0.253287 48.5876 0.110772 48.2154 0.0553469 47.8237C-0.000216382 47.432 0.0334962 47.0317 0.152739 46.6566L14.4456 1.74902C14.5236 1.5029 14.6379 1.27133 14.784 1.06226C14.9294 0.853187 15.1055 0.669917 15.304 0.518406C15.5032 0.366895 15.7229 0.249126 15.9564 0.169732C16.1899 0.0903369 16.4334 0.0493164 16.6781 0.0493164V0.049978L16.6787 0.0506397Z" fill="url(#paint0_linear_2010_74)"/>
<path d="M43.9211 49.9492H30.6515C30.5036 49.9492 30.3556 49.9347 30.2095 49.9049C30.064 49.8758 29.9211 49.8321 29.7831 49.7746C29.6451 49.717 29.5128 49.6456 29.3873 49.5622C29.262 49.4783 29.1443 49.3821 29.0358 49.2751L13.9776 34.3714C13.8183 34.2137 13.7074 34.0091 13.6592 33.7838C13.611 33.5586 13.6279 33.3232 13.7078 33.1083C13.7876 32.8934 13.9267 32.709 14.1068 32.579C14.2872 32.4494 14.5001 32.3799 14.718 32.3799H38.1519L43.9199 49.9499L43.9211 49.9492Z" fill="#495057"/>
<path d="M31.51 0.0508123L21.1652 32.3836L38.0677 32.3796L43.8656 49.9497H30.6459C30.5092 49.9483 30.3725 49.9351 30.2376 49.9093C30.1028 49.8835 29.9704 49.8458 29.8418 49.7955C29.584 49.6959 29.3441 49.5502 29.1326 49.3648L18.9677 39.3108L16.1221 48.2043C16.0484 48.4266 15.9473 48.6377 15.8212 48.8315C15.5684 49.2215 15.2227 49.5336 14.8192 49.7359C14.6183 49.8367 14.4056 49.9085 14.1867 49.9497H2.38922C2.01214 49.951 1.64005 49.8557 1.3048 49.6718C0.969496 49.488 0.680871 49.2214 0.463323 48.8944C0.245776 48.5675 0.1057 48.1898 0.0549383 47.7934C0.00435999 47.3968 0.0443979 46.9932 0.171684 46.6164L14.4414 1.78294C14.5157 1.53218 14.6275 1.29598 14.7723 1.08294C14.9165 0.8699 15.0926 0.681999 15.2924 0.52718C15.4922 0.37236 15.7144 0.251945 15.9498 0.171227C16.1851 0.0905096 16.4317 0.049489 16.6796 0.0508123H31.5106H31.51Z" fill="url(#paint1_linear_2010_74)"/>
<path d="M49.8473 46.6567C49.9666 47.0321 50.0002 47.4321 49.9453 47.8238C49.8898 48.2154 49.7475 48.5875 49.5301 48.9095C49.3124 49.2312 49.0255 49.4933 48.6932 49.6742C48.3609 49.855 47.9927 49.9495 47.6191 49.9496H31.1487C31.522 49.9496 31.8904 49.855 32.2231 49.6744C32.5552 49.4938 32.8424 49.2311 33.0603 48.9095C33.2782 48.588 33.4205 48.2155 33.4761 47.8238C33.5317 47.4322 33.498 47.0319 33.3787 46.6567L19.0852 1.74784C18.9279 1.25314 18.6281 0.823192 18.228 0.518548C18.0295 0.367036 17.8098 0.249929 17.5769 0.170535C17.344 0.0911402 17.1005 0.0507812 16.8564 0.0507812H33.3263C33.571 0.0507812 33.8138 0.0911402 34.0473 0.170535C34.2802 0.249929 34.5 0.367698 34.6991 0.518548C34.8976 0.670059 35.0731 0.853328 35.2185 1.06174C35.364 1.27015 35.4776 1.50172 35.5563 1.74784L49.8498 46.6567H49.8473Z" fill="url(#paint2_linear_2010_74)"/>
<defs>
<linearGradient id="paint0_linear_2010_74" x1="22.0721" y1="3.7491" x2="5.03901" y2="51.2282" gradientUnits="userSpaceOnUse">
<stop stop-color="#495057"/>
<stop offset="1" stop-color="#495057"/>
</linearGradient>
<linearGradient id="paint1_linear_2010_74" x1="26.8608" y1="26.1518" x2="23.2678" y2="27.3017" gradientUnits="userSpaceOnUse">
<stop stop-opacity="0.3"/>
<stop offset="0.1" stop-opacity="0.2"/>
<stop offset="0.3" stop-opacity="0.1"/>
<stop offset="0.6" stop-opacity="0.1"/>
<stop offset="1" stop-opacity="0"/>
</linearGradient>
<linearGradient id="paint2_linear_2010_74" x1="24.9006" y1="2.34661" x2="43.5486" y2="49.2243" gradientUnits="userSpaceOnUse">
<stop stop-color="#495057"/>
<stop offset="1" stop-color="#495057"/>
</linearGradient>
</defs>
</svg>
