<svg width="50" height="50" viewBox="0 0 50 50" fill="none" xmlns="http://www.w3.org/2000/svg">
<path fill-rule="evenodd" clip-rule="evenodd" d="M7.54221 40.4587V36.6543C7.54221 36.1544 7.80471 35.7529 8.23948 35.7529H8.35979C8.79436 35.7529 9.05569 36.1549 9.05569 36.6543V44.6638C9.05569 46.6169 8.24514 48.171 6.83264 49.1611C6.1856 49.6174 5.44702 49.8572 4.69494 49.8551H4.39475C2.75373 49.8551 1.45002 48.8895 0.617015 47.2091C0.233128 46.4389 0.0317201 45.5593 0.0342024 44.6638V44.3069C0.0342024 42.353 0.84514 40.7998 2.25647 39.8079C2.90339 39.3506 3.64238 39.1108 4.39475 39.1139H4.69494C5.80549 39.1139 6.74768 39.6263 7.54221 40.4587ZM1.54748 44.485C1.54748 45.8959 2.1219 46.9566 3.16037 47.6332C3.5803 47.9067 4.03616 48.0536 4.51526 48.0536C5.67854 48.0536 6.54143 47.4002 7.13655 46.2267C7.4133 45.6808 7.54221 45.0835 7.54221 44.4485C7.54221 43.2254 7.05588 42.271 6.22795 41.562C5.726 41.1323 5.16096 40.9168 4.54475 40.9168C3.27678 40.9168 2.36428 41.6795 1.81662 43.0341C1.63186 43.4921 1.54748 43.9783 1.54748 44.485ZM14.3061 39.1139H14.5158C16.2694 39.1139 17.603 40.1265 18.4481 41.9487C18.786 42.6776 18.9668 43.4733 18.9668 44.3069V44.6638C18.9668 46.6169 18.1578 48.1731 16.7432 49.1613C16.0883 49.6187 15.3649 49.8551 14.6059 49.8551H14.3061C12.6651 49.8551 11.361 48.8895 10.5283 47.2091C10.1443 46.439 9.94266 45.5594 9.94494 44.6638V44.3069C9.94494 42.3528 10.7592 40.8047 12.167 39.8084C12.8215 39.3455 13.5455 39.1139 14.3061 39.1139ZM11.4584 44.485C11.4584 45.8545 12.0229 46.862 12.9946 47.5704C13.4508 47.9029 13.9533 48.0536 14.4864 48.0536C15.6231 48.0536 16.4633 47.3675 17.0481 46.2253C17.327 45.6808 17.4531 45.0825 17.4531 44.4485C17.4531 43.175 16.9379 42.2021 16.0571 41.4972C15.5744 41.1105 15.0371 40.9168 14.4559 40.9168C13.1879 40.9168 12.2754 41.6795 11.728 43.0341C11.5428 43.4921 11.4584 43.9783 11.4584 44.485ZM25.2584 41.0607C25.0299 40.9333 24.6022 40.891 24.3553 40.8798C23.0908 40.8231 22.176 41.6708 21.6393 42.9987C21.4539 43.4568 21.3694 43.9416 21.3694 44.4485C21.3694 45.9917 22.05 47.0722 23.2071 47.7309C23.6297 47.9713 24.1754 48.0169 24.6373 48.0169C25.0436 48.0169 25.6178 47.7207 25.9783 47.5167L26.0408 47.4814H26.3207L26.3516 47.4888C26.6957 47.5742 26.9555 47.8339 26.9555 48.2747V48.4531C26.9555 49.5501 25.2715 49.8012 24.6289 49.8547C22.3614 50.0414 20.6655 48.5589 20.019 45.984C19.9067 45.5369 19.8561 45.0928 19.8561 44.6268V44.2704C19.8561 42.3165 20.6705 40.7689 22.0781 39.7735C22.7326 39.3108 23.4565 39.0783 24.2168 39.0783H24.5168C25.3235 39.0783 26.0664 39.351 26.7324 39.8926L26.7871 39.9377L26.8217 40.0056C26.8936 40.1474 26.9555 40.3116 26.9555 40.4804V40.6587C26.9555 41.1186 26.6664 41.366 26.3176 41.446L26.2887 41.452H26.1992C25.9735 41.452 25.46 41.1737 25.2584 41.0607ZM30.1674 42.2807C30.7553 41.5799 31.3451 40.8805 31.9418 40.1914C32.108 39.9991 32.7375 39.1853 32.9854 39.1853H33.2565L33.2873 39.1929C33.6326 39.2783 33.8912 39.5385 33.8912 39.9802V40.1583C33.8912 40.4597 33.5947 40.8098 33.4313 41.0161C33.0836 41.4548 32.7176 41.8792 32.3617 42.3089L30.5332 44.5187C31.3205 45.458 32.1071 46.3981 32.8879 47.3447C33.1045 47.6059 33.3194 47.8692 33.5326 48.1343C33.6078 48.2285 33.7188 48.3456 33.7819 48.4761C33.8496 48.5984 33.8912 48.7363 33.8912 48.8835V49.0695L33.8824 49.1125C33.7975 49.5236 33.5783 49.8551 33.1957 49.8551H33.0752C32.8248 49.8551 32.542 49.518 32.3705 49.3252C32.017 48.9286 31.6758 48.5114 31.3293 48.1062L30.1674 46.7483V48.9186C30.1674 49.4185 29.9045 49.8203 29.4703 49.8203H29.3512C28.9164 49.8203 28.6539 49.4185 28.6539 48.9186V36.6892C28.6539 36.1893 28.9166 35.7894 29.3512 35.7894H29.4703C29.9045 35.7894 30.1674 36.1893 30.1674 36.6892V42.2807ZM49.0301 39.1853H49.1805C49.6344 39.1853 49.9373 39.5494 49.9373 40.0867C49.9373 40.8326 49.3383 41.0235 48.8201 41.0235C48.1405 41.0235 47.4914 41.5134 47.0229 42.0629C46.4387 42.7486 46.183 43.6268 46.183 44.5922V48.9539C46.183 49.4538 45.9207 49.8551 45.4858 49.8551H45.3662C44.9313 49.8551 44.6692 49.4541 44.6692 48.9539V44.3417C44.6692 42.5707 45.3934 41.1249 46.6008 40.1109C47.3217 39.5052 48.1475 39.1855 49.0301 39.1855V39.1853ZM38.2735 47.8292C38.8242 48.0583 39.4522 48.0255 40.0172 47.9083C40.3063 47.762 41.0453 47.3782 41.3172 47.4344L41.3596 47.443L41.3987 47.4658C41.5647 47.5616 41.7231 47.6972 41.8078 47.8983C42.0059 48.3696 41.9108 48.8435 41.5217 49.1111L41.3922 49.2001C39.9567 50.1865 38.4297 50.0498 36.9987 49.1285C36.3145 48.6881 35.791 48.0345 35.4049 47.2377L35.3147 47.0515C34.393 45.1514 34.5174 43.1527 35.5569 41.3458C35.9156 40.7213 36.3846 40.2388 36.9328 39.8614L37.1403 39.7189C38.4922 38.7898 39.9412 38.8535 41.3297 39.6689C42.0764 40.1074 42.6813 40.761 43.0981 41.6206L43.1731 41.7755C43.4758 42.4 43.0836 42.9441 42.6787 43.3161C42.2088 43.7477 41.7344 44.2671 41.284 44.7298C40.2797 45.7619 39.277 46.7964 38.2735 47.8292ZM36.9737 46.7425C38.0967 45.5962 39.2201 44.4487 40.3403 43.2975C40.7231 42.9046 41.1428 42.4967 41.5225 42.0836C41.2178 41.6264 40.7088 41.297 40.2764 41.1005C39.4033 40.7045 38.5426 40.8375 37.742 41.3876C36.6942 42.108 36.2479 43.255 36.2869 44.6824C36.3026 45.2446 36.4295 45.7864 36.6801 46.2646C36.7684 46.4332 36.867 46.5916 36.9737 46.7425ZM28.8061 10.6383H33.2721V16.0733H35.5301C36.5731 16.0733 37.6455 15.8522 38.633 15.4539C39.1184 15.2579 39.6629 14.9853 40.1416 14.6424C39.5112 13.6626 39.1893 12.4254 39.0947 11.2058C38.9658 9.54683 39.2471 7.38769 40.1901 6.08933L40.6596 5.44294L41.219 5.97842C42.6274 7.32538 43.8119 9.20782 44.0207 11.3537C45.7166 10.7599 47.7078 10.9003 49.2026 11.9273L49.8158 12.3486L49.4932 13.0987C48.2289 16.0359 45.5858 16.9459 43.0018 16.7848C39.1352 28.2499 30.717 33.6777 20.5102 33.6777C15.2367 33.6777 10.3989 31.3309 7.64377 25.7613L7.59866 25.6706L7.19729 24.6982C6.26604 22.2466 5.95666 19.5608 6.16643 16.8771L6.22951 16.0733H10.0487V10.6383H14.5145V5.32157H23.4467V0.00488281H28.8061V10.6383Z" fill="#364548"/>
<path fill-rule="evenodd" clip-rule="evenodd" d="M43.2753 12.649C43.5747 9.87835 41.8331 7.70224 40.753 6.66895C39.5083 8.38211 39.3149 12.872 41.2677 14.7623C40.1778 15.9147 37.8815 16.9591 35.5302 16.9591H6.9081C6.67959 19.8811 7.11045 22.572 8.09463 24.8751L8.42021 25.5843C8.62637 26.0005 8.85165 26.4029 9.09502 26.7896C10.2718 26.8796 11.3567 26.9105 12.3493 26.8845H12.3497C14.3003 26.8333 15.8919 26.559 17.0981 26.0614C17.1834 26.0298 17.2757 26.039 17.3554 26.0869C17.4351 26.1348 17.496 26.2178 17.5253 26.3183C17.5545 26.4187 17.5498 26.5288 17.5121 26.6252C17.4744 26.7215 17.4067 26.7967 17.3233 26.8347C17.1628 26.9012 16.9956 26.9631 16.8229 27.0219H16.8224C15.8726 27.3449 14.854 27.562 13.5399 27.6585C13.6181 27.6602 13.4587 27.6725 13.4583 27.6725C13.4136 27.676 13.3573 27.6836 13.3124 27.6864C12.7952 27.7211 12.237 27.7283 11.6663 27.7283C11.0421 27.7283 10.4274 27.7143 9.74014 27.6725L9.72256 27.6864C12.1073 30.8775 15.8362 32.7913 20.5104 32.7913C30.4026 32.7913 38.7933 27.5709 42.5089 15.851C45.1448 16.173 47.6782 15.3727 48.8306 12.6946C46.995 11.4336 44.6345 11.8357 43.2753 12.649Z" fill="#495057"/>
<path fill-rule="evenodd" clip-rule="evenodd" d="M43.2753 12.649C43.5747 9.87835 41.8331 7.70224 40.753 6.66895C39.5083 8.38212 39.3149 12.872 41.2676 14.7623C40.1778 15.9147 37.8815 16.9591 35.5301 16.9591H8.60298C8.48619 21.4341 9.88111 24.8309 12.3491 26.8845H12.3497C14.3003 26.8333 15.8919 26.559 17.0981 26.0614C17.1834 26.0298 17.2756 26.039 17.3553 26.0869C17.4351 26.1348 17.496 26.2178 17.5252 26.3183C17.5545 26.4187 17.5498 26.5288 17.5121 26.6252C17.4744 26.7215 17.4067 26.7967 17.3233 26.8347C17.1628 26.9012 16.9956 26.9631 16.8229 27.0219H16.8223C15.8725 27.3449 14.7665 27.5899 13.4524 27.6864C13.452 27.6864 13.4206 27.6504 13.4202 27.6504C16.7868 29.7063 21.6682 29.6988 27.2649 27.1396C33.5403 24.2694 39.3799 18.8016 43.4544 12.5476C43.393 12.5806 43.3333 12.6144 43.2753 12.649Z" fill="#495057"/>
<path fill-rule="evenodd" clip-rule="evenodd" d="M6.96191 20.5093C7.13965 22.0746 7.52441 23.5401 8.09473 24.875L8.42031 25.5841C8.62643 26.0004 8.85171 26.4028 9.09512 26.7895C10.2721 26.8795 11.357 26.9104 12.3498 26.8844C14.3004 26.8332 15.892 26.5589 17.0982 26.0613C17.1835 26.0297 17.2758 26.0388 17.3555 26.0868C17.4352 26.1347 17.4961 26.2177 17.5254 26.3181C17.5546 26.4186 17.5499 26.5286 17.5122 26.625C17.4745 26.7214 17.4068 26.7966 17.3234 26.8346C17.1629 26.9011 16.9957 26.963 16.823 27.0218H16.8225C15.8727 27.3448 14.7725 27.5759 13.4584 27.6726C13.4133 27.6759 13.3346 27.6765 13.2891 27.6796C12.7723 27.714 12.2197 27.7351 11.6488 27.7351C11.0248 27.7351 10.3865 27.721 9.69961 27.6793C12.0844 30.8704 15.8363 32.7912 20.5105 32.7912C28.9793 32.7912 36.3473 28.9644 40.6236 20.5093H6.96191Z" fill="#495057"/>
<path fill-rule="evenodd" clip-rule="evenodd" d="M8.86084 20.5093C9.36709 23.2576 10.5837 25.4151 12.3499 26.8844C14.3005 26.8332 15.8921 26.5589 17.0983 26.0613C17.1836 26.0297 17.2759 26.0388 17.3556 26.0868C17.4353 26.1347 17.4962 26.2177 17.5255 26.3181C17.5547 26.4186 17.55 26.5286 17.5123 26.625C17.4746 26.7214 17.4069 26.7966 17.3235 26.8346C17.163 26.9011 16.9958 26.963 16.8231 27.0218H16.8226C15.8728 27.3448 14.7493 27.5759 13.4351 27.6726C16.8015 29.728 21.6688 29.6985 27.2651 27.1394C30.6507 25.5909 33.9091 23.2857 36.8323 20.5093H8.86084Z" fill="#495057"/>
<path fill-rule="evenodd" clip-rule="evenodd" d="M10.793 11.5242H14.6637V16.1322H10.793V11.5242ZM11.1154 11.9083H11.4209V15.7483H11.1154V11.9083ZM11.6896 11.9083H12.0074V15.7483H11.6898V11.9083H11.6896ZM12.276 11.9083H12.5938V15.7483H12.276V11.9083ZM12.8627 11.9083H13.1803V15.7483H12.8627V11.9083ZM13.4492 11.9083H13.7668V15.7483H13.4492V11.9083ZM14.0355 11.9083H14.3412V15.7483H14.0355V11.9083ZM15.259 6.20752H19.1299V10.8153H15.2588V6.20752H15.259ZM15.5816 6.59163H15.8869V10.4314H15.5816V6.59163ZM16.1559 6.59163H16.4734V10.4314H16.1561V6.59163H16.1559ZM16.7422 6.59163H17.0598V10.4314H16.7422V6.59163ZM17.3287 6.59163H17.6463V10.4314H17.3287V6.59163ZM17.9152 6.59163H18.233V10.4314H17.9152V6.59163ZM18.5016 6.59163H18.8074V10.4314H18.5016V6.59163Z" fill="#495057"/>
<path fill-rule="evenodd" clip-rule="evenodd" d="M15.259 11.5244H19.1299V16.1324H15.2588V11.5244H15.259ZM15.5816 11.9085H15.8869V15.7485H15.5816V11.9085ZM16.1559 11.9085H16.4734V15.7485H16.1561V11.9085H16.1559ZM16.7422 11.9085H17.0598V15.7485H16.7422V11.9085ZM17.3287 11.9085H17.6463V15.7485H17.3287V11.9085ZM17.9152 11.9085H18.233V15.7485H17.9152V11.9085ZM18.5016 11.9085H18.8074V15.7485H18.5016V11.9085Z" fill="#495057"/>
<path fill-rule="evenodd" clip-rule="evenodd" d="M19.7251 11.5244H23.5958V16.1324H19.7251V11.5244ZM20.0476 11.9085H20.3528V15.7485H20.0476V11.9085ZM20.6218 11.9085H20.9394V15.7485H20.6218V11.9085ZM21.2083 11.9085H21.5259V15.7485H21.2083V11.9085ZM21.7948 11.9085H22.1124V15.7485H21.7948V11.9085ZM22.3812 11.9085H22.6991V15.7485H22.3812V11.9085ZM22.9677 11.9085H23.2731V15.7485H22.9677V11.9085Z" fill="#495057"/>
<path fill-rule="evenodd" clip-rule="evenodd" d="M19.7251 6.20752H23.5958V10.8153H19.7251V6.20752ZM20.0476 6.59163H20.3528V10.4314H20.0476V6.59163ZM20.6218 6.59163H20.9394V10.4314H20.6218V6.59163ZM21.2083 6.59163H21.5259V10.4314H21.2083V6.59163ZM21.7948 6.59163H22.1124V10.4314H21.7948V6.59163ZM22.3812 6.59163H22.6991V10.4314H22.3812V6.59163ZM22.9677 6.59163H23.2731V10.4314H22.9677V6.59163ZM24.1911 11.5242H28.0618V16.1322H24.1911V11.5242ZM24.5138 11.9083H24.819V15.7483H24.5138V11.9083ZM25.088 11.9083H25.4056V15.7483H25.088V11.9083ZM25.6743 11.9083H25.9919V15.7483H25.6743V11.9083ZM26.2608 11.9083H26.5786V15.7483H26.2608V11.9083ZM26.8474 11.9083H27.1651V15.7483H26.8474V11.9083ZM27.4339 11.9083H27.7394V15.7483H27.4339V11.9083Z" fill="#495057"/>
<path fill-rule="evenodd" clip-rule="evenodd" d="M24.1914 6.20752H28.0621V10.8153H24.1914V6.20752ZM24.5141 6.59163H24.8193V10.4314H24.5141V6.59163ZM25.0883 6.59163H25.4059V10.4314H25.0883V6.59163ZM25.6746 6.59163H25.9922V10.4314H25.6746V6.59163ZM26.2611 6.59163H26.5789V10.4314H26.2611V6.59163ZM26.8477 6.59163H27.1654V10.4314H26.8477V6.59163ZM27.4342 6.59163H27.7396V10.4314H27.4342V6.59163Z" fill="#495057"/>
<path fill-rule="evenodd" clip-rule="evenodd" d="M24.1914 0.890625H28.0621V5.49907H24.1914V0.890625ZM24.5141 1.27451H24.8193V5.11472H24.5141V1.27427V1.27451ZM25.0883 1.27451H25.4059V5.11472H25.0883V1.27427V1.27451ZM25.6746 1.27451H25.9922V5.11472H25.6746V1.27427V1.27451ZM26.2611 1.27451H26.5789V5.11472H26.2611V1.27427V1.27451ZM26.8477 1.27451H27.1654V5.11472H26.8477V1.27427V1.27451ZM27.4342 1.27451H27.7396V5.11472H27.4342V1.27427V1.27451Z" fill="#495057"/>
<path fill-rule="evenodd" clip-rule="evenodd" d="M28.6572 11.5244H32.5279V16.1324H28.6572V11.5244ZM28.9795 11.9085H29.2852V15.7485H28.9797V11.9085H28.9795ZM29.5537 11.9085H29.8715V15.7485H29.5539V11.9085H29.5537ZM30.1404 11.9085H30.4582V15.7485H30.1404V11.9085ZM30.7268 11.9085H31.0445V15.7485H30.7268V11.9085ZM31.3135 11.9085H31.6311V15.7485H31.3135V11.9085ZM31.8998 11.9085H32.2053V15.7485H31.8998V11.9085Z" fill="#495057"/>
<path fill-rule="evenodd" clip-rule="evenodd" d="M18.8877 23.6031C19.0292 23.6009 19.1696 23.6321 19.3008 23.695C19.432 23.7579 19.5515 23.8512 19.6521 23.9695C19.7528 24.0878 19.8328 24.2287 19.8873 24.3841C19.9419 24.5395 19.9699 24.7062 19.9699 24.8747C19.9699 25.0431 19.9418 25.2098 19.8872 25.3651C19.8326 25.5205 19.7526 25.6614 19.6519 25.7796C19.5511 25.8979 19.4317 25.9912 19.3004 26.054C19.1692 26.1168 19.0288 26.148 18.8873 26.1457C18.6066 26.1411 18.3387 26.0051 18.1416 25.7672C17.9444 25.5292 17.8339 25.2084 17.834 24.8742C17.834 24.54 17.9446 24.2192 18.1418 23.9813C18.339 23.7435 18.607 23.6076 18.8877 23.6031Z" fill="#495057"/>
<path fill-rule="evenodd" clip-rule="evenodd" d="M18.8875 23.9641C18.9852 23.9641 19.0783 23.9859 19.1643 24.0257C19.105 24.0667 19.0586 24.1297 19.0325 24.2052C19.0063 24.2807 19.0017 24.3643 19.0195 24.4431C19.0372 24.522 19.0763 24.5917 19.1306 24.6415C19.1849 24.6912 19.2515 24.7183 19.3201 24.7186C19.4383 24.7186 19.5408 24.6407 19.5939 24.5253C19.6568 24.7057 19.6693 24.9054 19.6296 25.0949C19.5898 25.2844 19.5 25.4536 19.3732 25.5776C19.2465 25.7016 19.0896 25.7738 18.9257 25.7835C18.7618 25.7932 18.5997 25.7399 18.4633 25.6315C18.3268 25.5231 18.2232 25.3653 18.1679 25.1814C18.1126 24.9976 18.1084 24.7974 18.1559 24.6105C18.2035 24.4235 18.3003 24.2598 18.432 24.1434C18.5637 24.027 18.7234 23.9641 18.8875 23.9641ZM0 20.969H49.6732C48.5918 20.6426 46.2514 20.2013 46.6373 18.5137C44.6705 21.2229 39.9277 20.4145 38.7307 19.0787C37.3979 21.3801 29.6381 20.5052 29.0969 18.7122C27.4258 21.0469 22.2479 21.0469 20.5768 18.7122C20.0352 20.5052 12.2756 21.3801 10.9426 19.0785C9.7457 20.4145 5.00312 21.2229 3.03633 18.5139C3.42227 20.2013 1.08184 20.6426 0 20.9693" fill="#364548"/>
<path fill-rule="evenodd" clip-rule="evenodd" d="M21.7259 32.7637C19.0813 31.2698 17.63 29.2388 16.8224 27.022C15.8399 27.3556 14.6593 27.5691 13.2872 27.6607C12.7704 27.6951 12.2267 27.7128 11.6563 27.7128C10.9985 27.7128 10.3054 27.6895 9.57764 27.6437C12.0028 30.5292 14.9862 32.7507 20.5104 32.7911C20.9183 32.7911 21.3229 32.7818 21.7259 32.7637Z" fill="#495057"/>
<path fill-rule="evenodd" clip-rule="evenodd" d="M17.8045 29.0676C17.4387 28.4763 17.0838 27.7332 16.8229 27.0215C15.8404 27.3556 14.6594 27.5691 13.2871 27.6609C14.2297 28.2699 15.5775 28.8342 17.8047 29.0676" fill="#495057"/>
</svg>
