<svg width="100" height="100" viewBox="0 0 100 100" fill="none" xmlns="http://www.w3.org/2000/svg">
<path d="M55.4375 42.7958V44.6958C55.4375 48.1167 55.5167 50.9625 53.7958 54.0042C52.4042 56.4792 50.1833 57.9958 47.7208 57.9958C44.35 57.9958 42.3792 55.4292 42.3792 51.6292C42.3833 44.1542 49.0917 42.7958 55.4375 42.7958ZM100 20.8333V79.1667C100 90.6708 90.675 100 79.1667 100H20.8333C9.32917 100 0 90.6708 0 79.1667V20.8333C0 9.32917 9.32917 0 20.8333 0H79.1667C90.675 0 100 9.32917 100 20.8333ZM55.4375 34.625V35.7667C50.3458 36.3333 43.6958 36.7125 38.9333 38.8083C33.4333 41.1833 29.5708 46.025 29.5708 53.15C29.5708 62.2708 35.3208 66.8292 42.7125 66.8292C48.9542 66.8292 52.3667 65.3583 57.1833 60.45C58.7833 62.7583 59.3 63.8792 62.225 66.3C62.8708 66.6542 63.7375 66.6375 64.3167 66.1125C66.0625 64.5542 69.25 61.7875 71.0458 60.2833C71.7583 59.7042 71.6375 58.75 71.0708 57.95C69.4708 55.7333 67.7583 53.9292 67.7583 49.8167V36.1417C67.7583 30.3458 68.1625 25.025 63.8917 21.0375C60.5292 17.8042 54.9458 16.6667 50.675 16.6667C42.325 16.6667 33.0042 19.7833 31.0458 30.1083C30.8375 31.2042 31.6417 31.7833 32.3583 31.9417L40.8625 32.8667C41.6583 32.825 42.2375 32.0417 42.3875 31.25C43.1167 27.6958 46.0958 25.9792 49.4417 25.9792C51.25 25.9792 53.3042 26.6458 54.3708 28.2542C55.6042 30.0625 55.4375 32.5333 55.4375 34.625ZM74.175 71.6208C66.5417 75.7083 58.2458 77.6792 50.6958 77.6792C39.5125 77.6792 28.6792 73.8083 19.9167 67.3833C19.1458 66.8208 18.5792 67.8125 19.2208 68.5375C27.3417 77.7792 38.0667 83.3333 49.9833 83.3333C58.4833 83.3333 68.3583 79.9625 75.1667 73.625C76.2958 72.5792 75.3292 71.0042 74.175 71.6208ZM80.8167 67.6208C80.0583 66.6875 73.5625 65.8833 69.5958 68.6708C68.9833 69.1 69.0917 69.6917 69.7667 69.6083C72 69.3417 76.975 68.7417 77.8583 69.8792C78.7458 71.0125 76.875 75.6917 76.0375 77.7792C75.7833 78.4083 76.3292 78.6667 76.9 78.1875C80.6167 75.075 81.575 68.5583 80.8167 67.6208Z" fill="#495057"/>
</svg>
