<svg width="100" height="100" viewBox="0 0 100 100" fill="none" xmlns="http://www.w3.org/2000/svg">
<path d="M19.3835 0H25.3835L29.5002 15.425L33.3168 0H39.3752L32.4377 22.9375V38.5917H26.4752V22.9375L19.3835 0V0ZM46.8585 9.8875C42.196 9.8875 39.1043 12.9708 39.1043 17.5333V31.4875C39.1043 36.5042 41.7252 39.1167 46.8585 39.1167C51.1168 39.1167 54.4668 36.2708 54.4668 31.4875V17.5333C54.4668 13.0792 51.146 9.8875 46.8585 9.8875ZM49.071 31.25C49.071 32.8 48.2793 33.9417 46.8543 33.9417C45.3918 33.9417 44.546 32.7458 44.546 31.25V18.0042C44.546 16.4458 45.2627 15.2917 46.7502 15.2917C48.3752 15.2917 49.071 16.4125 49.071 18.0042V31.25ZM68.7752 10.125V31.7333C68.1293 32.5417 66.6918 33.8667 65.6627 33.8667C64.5335 33.8667 64.2543 33.0917 64.2543 31.95V10.125H58.9627V33.9167C58.9627 36.7292 59.821 39 62.6585 39C64.2585 39 66.4835 38.1667 68.7752 35.4458V38.5875H74.0668V10.125H68.7752ZM77.9543 67.8667C76.0877 67.8667 75.7002 69.1792 75.7002 71.0458V73.7917H80.1543V71.0417C80.1585 69.2083 79.771 67.8667 77.9543 67.8667ZM58.3585 68.0333C58.0085 68.2125 57.6627 68.4875 57.3168 68.8583V85.7542C57.7293 86.1958 58.1252 86.5125 58.5127 86.7083C59.3335 87.125 60.5335 87.1542 61.0918 86.4292C61.3835 86.0458 61.5293 85.425 61.5293 84.5583V70.5625C61.5293 69.6458 61.3502 68.9542 60.9918 68.4792C60.3793 67.675 59.2418 67.5875 58.3585 68.0333ZM78.471 46.3875C67.621 45.65 32.3627 45.65 21.5293 46.3875C9.80433 47.1875 8.421 54.2708 8.3335 72.9167C8.421 91.5292 9.79183 98.6458 21.5293 99.4458C32.3627 100.183 67.621 100.183 78.471 99.4458C90.196 98.6458 91.5793 91.5583 91.6668 72.9167C91.5793 54.3042 90.2085 47.1875 78.471 46.3875ZM27.121 90.9125H21.4418V59.4958H15.5668V54.1625H32.9918V59.4958H27.1168V90.9125H27.121ZM47.3127 90.9125H42.271V87.9208C41.3418 89.025 40.3752 89.8667 39.371 90.4417C36.6543 92 32.9252 91.9625 32.9252 86.4625V63.8042H37.9627V84.5875C37.9627 85.6792 38.2252 86.4125 39.3043 86.4125C40.2877 86.4125 41.6543 85.15 42.2668 84.3833V63.8042H47.3085V90.9125H47.3127ZM66.7168 85.2958C66.7168 88.65 65.4627 91.2583 62.1085 91.2583C60.2627 91.2583 58.7252 90.5833 57.321 88.8292V90.9125H52.2335V54.1625H57.321V65.9958C58.4585 64.6083 60.0043 63.4625 61.8043 63.4625C65.496 63.4625 66.721 66.5833 66.721 70.2583V85.2958H66.7168ZM85.346 77.9958H75.7043V83.1125C75.7043 85.1458 75.8793 86.9042 77.9043 86.9042C80.0335 86.9042 80.1585 85.4708 80.1585 83.1125V81.2292H85.346V83.2667C85.346 88.4875 83.1043 91.6542 77.7918 91.6542C72.9793 91.6542 70.5168 88.1458 70.5168 83.2667V71.0958C70.5168 66.3917 73.6252 63.1208 78.171 63.1208C83.0085 63.1208 85.3418 66.1958 85.3418 71.0958V77.9958H85.346Z" fill="#495057"/>
</svg>
