<svg width="100" height="100" viewBox="0 0 100 100" fill="none" xmlns="http://www.w3.org/2000/svg">
<g clip-path="url(#clip0_1913_2)">
<path d="M94.4792 0H5.52083C2.47083 0 0 2.47083 0 5.52083V94.4833C0 97.5292 2.47083 100 5.52083 100H53.4167V61.275H40.3833V46.1833H53.4167V35.0542C53.4167 22.1375 61.3042 15.1042 72.8292 15.1042C78.35 15.1042 83.0917 15.5167 84.475 15.7V29.2L76.4833 29.2042C70.2167 29.2042 69.0042 32.1833 69.0042 36.55V46.1875H83.95L82.0042 61.2792H69.0042V100H94.4875C97.5292 100 100 97.5292 100 94.4792V5.52083C100 2.47083 97.5292 0 94.4792 0V0Z" fill="#495057"/>
</g>
<defs>
<clipPath id="clip0_1913_2">
<rect width="100" height="100" fill="white"/>
</clipPath>
</defs>
</svg>
