<svg width="50" height="50" viewBox="0 0 50 50" fill="none" xmlns="http://www.w3.org/2000/svg">
<path d="M16.1214 38.652C16.1214 38.652 13.5441 39.7611 17.9557 40.1363C23.3003 40.5875 26.0318 40.5229 31.9217 39.6979C31.9217 39.6979 33.4702 40.4164 35.6326 41.0388C22.4294 45.2262 5.75075 40.7962 16.1214 38.652ZM14.508 33.1875C14.508 33.1875 11.6172 34.771 16.0321 35.1089C21.7414 35.5447 26.2501 35.5804 34.052 34.4687C34.052 34.4687 35.1311 35.2783 36.8279 35.721C20.8642 39.1754 3.08358 35.9934 14.508 33.1875Z" fill="#495057"/>
<path d="M28.1095 23.9182C31.3629 26.6899 27.2547 29.1841 27.2547 29.1841C27.2547 29.1841 35.5154 26.0285 31.7216 22.0767C28.1784 18.3918 25.4611 16.5606 40.1711 10.2476C40.1711 10.2476 17.0813 14.5149 28.1095 23.9181" fill="#495057"/>
<path d="M45.5719 42.694C45.5719 42.694 47.4793 43.8569 43.4713 44.7566C35.8502 46.4651 11.7512 46.981 5.05659 44.8247C2.65013 44.0501 7.1631 42.975 8.5826 42.7493C10.063 42.5117 10.9092 42.556 10.9092 42.556C8.23285 41.1608 -6.38947 45.2955 3.48184 46.4795C30.402 49.7101 52.5546 45.0248 45.5719 42.694ZM17.3607 27.5261C17.3607 27.5261 5.10268 29.6808 13.02 30.463C16.3628 30.7942 23.0268 30.7193 29.2343 30.3344C34.3073 30.0179 39.4012 29.3445 39.4012 29.3445C39.4012 29.3445 37.6124 29.9114 36.3183 30.5653C23.8703 32.988 -0.177163 31.861 6.74578 29.3828C12.6005 27.2886 17.3609 27.5261 17.3609 27.5261H17.3607ZM39.3506 36.6218C52.0049 31.7559 46.1541 27.0799 42.0703 27.7099C41.0693 27.864 40.6231 27.9975 40.6231 27.9975C40.6231 27.9975 40.9947 27.5669 41.7044 27.3805C49.7832 25.2786 55.9965 33.5795 39.0964 36.867C39.0964 36.8672 39.2923 36.7377 39.3506 36.6218Z" fill="#495057"/>
<path d="M31.7213 0.0538554C31.7213 0.0538554 38.7294 5.24172 25.0745 13.2187C14.1248 19.6179 22.5776 23.2664 25.07 27.4351C18.6784 23.1677 13.9877 19.4111 17.1347 15.9148C21.7533 10.7823 34.5488 8.29403 31.7213 0.0537109" fill="#495057"/>
<path d="M18.6043 49.8071C30.7506 50.3826 49.4026 49.4879 49.8443 45.2349C49.8443 45.2349 48.9952 46.8473 39.806 48.1276C29.4389 49.5713 16.6526 49.4028 9.06885 48.4775C9.06904 48.4775 10.6213 49.4284 18.6045 49.8071" fill="#495057"/>
</svg>
