<svg width="100" height="100" viewBox="0 0 100 100" fill="none" xmlns="http://www.w3.org/2000/svg">
<path fill-rule="evenodd" clip-rule="evenodd" d="M0 0H100V100H0V0Z" fill="white"/>
<path fill-rule="evenodd" clip-rule="evenodd" d="M8.79461 70.7791V74.3572L11.5893 70.7791H14.4842L11.1873 75.4233L15.3692 80.7306H12.092L8.79461 76.7094V80.7306H5.83906V70.7791H8.79461ZM16.0727 70.7791H18.8472V80.7306H16.0727V70.7791ZM23.1293 70.7791H25.9645L29.3423 80.7306H26.6882L25.9645 78.8007H22.5265L21.8028 80.7306H19.5107L23.1293 70.7791ZM34.067 80.7306L35.5346 70.7791H38.3091L40.46 76.0464L42.4107 70.7791H45.4259L46.7934 80.7306H44.2399L43.3751 75.4233L41.2647 80.7306H39.4951L37.2435 75.4233L36.3792 80.7306H34.067ZM57.369 72.4071V70.7791H65.9332V72.4071H63.1587V80.7306H60.2841V72.4071H57.369ZM77.0924 70.7791H81.4948C83.0429 70.7791 85.1943 71.3819 85.1943 73.3124C85.1943 74.5186 84.33 75.4633 83.3044 75.9857L85.7567 79.5643C85.9787 79.9264 86.2796 80.1879 86.622 80.4494V80.7306H84.1687C83.7064 80.7306 83.1632 80.2481 82.9023 79.886L80.1677 75.9852V80.73H77.0924V70.7791ZM93.0348 72.6281C92.3318 72.3069 91.6273 72.0252 90.8429 72.0252C90.1794 72.0252 89.1548 72.3267 89.1548 73.151C89.1548 73.8545 89.9786 74.2571 90.542 74.5186L91.6273 75.0415C92.8937 75.6443 93.9193 76.5289 93.9193 78.0168C93.9193 80.0675 92.2301 81.213 90.3008 81.213C89.0344 81.213 87.948 80.8115 86.8425 80.2076L86.4404 78.7202C87.4459 79.1825 88.4912 79.7257 89.617 79.7257C90.32 79.7257 91.2252 79.3034 91.2252 78.4992C91.2252 77.775 90.5425 77.4336 89.9791 77.1519L88.9332 76.6695C87.6669 76.0661 86.2402 75.3222 86.2402 73.7144C86.2402 71.5832 88.4513 70.5576 90.3013 70.5576C91.2859 70.5576 92.171 70.7988 93.0353 71.2211V72.6281H93.0348ZM50.0099 18.787C57.6901 18.787 65.391 19.8531 72.8092 21.8634C81.5955 24.256 95.5883 30.8706 95.5883 41.7071C95.5883 50.3123 86.8228 55.9816 79.8866 59.0576C74.7796 61.3096 69.2908 62.6159 63.7817 63.5212C59.2382 64.2652 54.6137 64.6268 50.0099 64.6268C42.31 64.6268 34.6299 63.5814 27.2112 61.5706C18.4249 59.1784 4.41187 52.5436 4.41187 41.7071C4.41187 33.1222 13.1779 27.4523 20.1141 24.3764C25.2206 22.1249 30.7296 20.7978 36.2184 19.9127C40.7777 19.1661 45.3899 18.7896 50.0099 18.787Z" fill="#495057"/>
<path fill-rule="evenodd" clip-rule="evenodd" d="M52.4627 70.2562C55.4789 70.2562 58.213 72.6281 58.213 75.7247C58.213 78.8006 55.4789 81.1933 52.4627 81.1933C49.4475 81.1933 46.7332 78.8006 46.7332 75.7247C46.7332 72.6281 49.4469 70.2562 52.4627 70.2562ZM70.9394 70.2562C73.9344 70.2562 76.6694 72.6281 76.6694 75.7247C76.6694 78.8006 73.9349 81.1933 70.9394 81.1933C67.9242 81.1933 65.1891 78.8006 65.1891 75.7247C65.1891 72.6281 67.9242 70.2562 70.9394 70.2562Z" fill="#495057"/>
<path fill-rule="evenodd" clip-rule="evenodd" d="M23.19 77.152H25.3813L24.3157 74.2768L23.19 77.152ZM80.1672 72.3666V75.6843C81.1928 75.5437 82.3388 75.0213 82.3388 73.8146C82.3388 72.6483 81.2738 72.3666 80.3083 72.3666H80.1672ZM49.9295 23.9137C42.8527 23.9137 35.7955 24.7785 28.8795 26.2861C22.1041 27.7942 7.84985 32.9007 7.84985 41.6262C7.84985 48.6029 16.9572 53.0863 22.4258 55.0966C27.1904 56.846 32.2169 57.7705 37.243 58.4745C41.4452 59.0373 45.6873 59.3388 49.9295 59.3388C57.0063 59.3388 64.0634 58.4947 70.9597 56.9866C77.7548 55.479 92.0091 50.372 92.0091 41.6267C92.0091 34.6506 82.8815 30.1869 77.4129 28.1766C72.6681 26.4272 67.6218 25.4825 62.6155 24.7992C58.4138 24.2353 54.1721 23.9137 49.9295 23.9137ZM52.4627 72.0253C50.5728 72.0253 49.5876 74.1362 49.5876 75.7647C49.5876 77.3735 50.593 79.4642 52.4627 79.4642C54.3325 79.4642 55.3182 77.3932 55.3182 75.7647C55.3182 74.116 54.3325 72.0253 52.4627 72.0253ZM70.9192 72.0253C69.0293 72.0253 68.0638 74.116 68.0638 75.7647C68.0638 77.3932 69.0495 79.4642 70.9192 79.4642C72.789 79.4642 73.7938 77.3932 73.7938 75.7647C73.7938 74.116 72.8092 72.0253 70.9192 72.0253Z" fill="white"/>
<path fill-rule="evenodd" clip-rule="evenodd" d="M21.0386 30.729H28.4376V38.7713L34.3684 30.729H41.164L34.3684 40.8018L42.7323 52.5836H35.8158L28.4376 42.933V52.5836H22.3055V32.2574L21.0386 31.6545V30.729ZM46.3509 31.6545V30.729H53.6492V52.5836H47.5374V32.2574L46.3509 31.6545ZM66.3959 32.2574L65.2297 31.6545V30.729H74.0361L81.3947 52.5836H75.4234L70.4767 38.2084L65.5306 52.5836H59.6205L66.3959 32.2574Z" fill="#495057"/>
</svg>
