<svg width="50" height="50" viewBox="0 0 50 50" fill="none" xmlns="http://www.w3.org/2000/svg">
<path d="M16.0321 49.1801C14.8708 49.1801 13.7741 48.6497 13.0321 47.688L1.74209 33.2634C1.0001 32.3017 0.709863 31.075 1.0001 29.881L5.03232 11.8752C5.29033 10.6814 6.06455 9.7197 7.1292 9.18925L23.4517 1.16433C23.9679 0.899313 24.5485 0.766602 25.1292 0.766602C25.7099 0.766602 26.2903 0.899112 26.8065 1.16453L43.1292 9.15612C44.1937 9.68657 44.9679 10.6483 45.2259 11.8421L49.2581 29.8478C49.5163 31.0416 49.2581 32.2686 48.5163 33.2303L37.2259 47.6549C36.4839 48.5832 35.3872 49.147 34.2259 49.147L16.0325 49.1801H16.0321Z" fill="#495057"/>
<path d="M25.0968 1.59523C25.5486 1.59523 26.0002 1.69461 26.4195 1.89358L42.7422 9.88517C43.5808 10.3162 44.2259 11.1121 44.4195 12.0407L48.4517 30.0464C48.6775 31.0082 48.4517 32.003 47.8388 32.7655L36.5486 47.1903C35.9679 47.9528 35.0646 48.3839 34.1293 48.3839H16.0324C15.0968 48.3839 14.1937 47.9528 13.6131 47.1903L2.32282 32.7655C1.74216 32.003 1.51618 31.0082 1.70993 30.0464L5.74216 12.0407C5.96794 11.079 6.58083 10.2831 7.4195 9.88517L23.7424 1.86065C24.1617 1.69481 24.6455 1.59543 25.097 1.59543L25.0968 1.59523ZM25.0968 0.0366211C24.4195 0.0366211 23.7422 0.20246 23.0968 0.50081L6.77438 8.52573C5.48395 9.15576 4.58083 10.3162 4.25817 11.7421L0.225947 29.7481C-0.0965141 31.174 0.225947 32.633 1.12927 33.7937L12.4195 48.2183C13.2906 49.3456 14.6131 49.9756 16.0002 49.9756H34.0968C35.484 49.9756 36.8066 49.3456 37.6775 48.2183L48.9679 33.7935C49.8711 32.6661 50.1937 31.174 49.8711 29.7479L45.8388 11.7421C45.5164 10.3162 44.6131 9.15576 43.3228 8.52573L27.0646 0.500609C26.4517 0.20246 25.7744 0.0366211 25.0968 0.0366211Z" fill="white"/>
<path d="M41.4513 28.6206C41.4191 28.6206 41.4191 28.6206 41.4513 28.6206H41.4191C41.3869 28.6206 41.3546 28.6206 41.3546 28.5875C41.2902 28.5875 41.2257 28.5543 41.1611 28.5543C40.9353 28.5212 40.7417 28.4881 40.5482 28.4881C40.4513 28.4881 40.3546 28.4881 40.2255 28.4548H40.1933C39.516 28.3885 38.9675 28.3222 38.4513 28.1564C38.2255 28.0568 38.1611 27.9243 38.0964 27.7916C38.0964 27.7585 38.0642 27.7585 38.0642 27.7253L37.6449 27.5928C37.843 26.0329 37.7665 24.4491 37.4191 22.917C37.0669 21.3722 36.4556 19.9023 35.6126 18.5731L35.9353 18.2747V18.2085C35.9353 18.0426 35.9675 17.8768 36.0964 17.711C36.4835 17.3462 36.9675 17.0478 37.5482 16.683C37.6449 16.6167 37.7416 16.5836 37.8384 16.5172C38.032 16.4178 38.1933 16.3184 38.3869 16.1857C38.4191 16.1526 38.4835 16.1194 38.5482 16.0532C38.5804 16.0198 38.6126 16.0198 38.6126 15.9867C39.0642 15.5888 39.1611 14.9256 38.8384 14.4944C38.6771 14.2623 38.3869 14.1298 38.0964 14.1298C37.8386 14.1298 37.6126 14.2291 37.3869 14.395L37.3224 14.4612C37.258 14.4944 37.2255 14.5608 37.1611 14.594C36.9998 14.7598 36.8707 14.8923 36.7417 15.0581C36.6773 15.1244 36.6128 15.224 36.516 15.2902C36.0642 15.7878 35.6449 16.1857 35.2255 16.484C35.1289 16.5503 35.0322 16.5836 34.9353 16.5836C34.8708 16.5836 34.8062 16.5836 34.7417 16.5503H34.6773L34.29 16.8157C33.8707 16.3515 33.4191 15.9536 32.9675 15.5557C31.0231 13.9933 28.683 13.0379 26.2255 12.8033L26.1933 12.3722L26.1289 12.3059C26.032 12.2064 25.9031 12.107 25.8707 11.8749C25.8384 11.3442 25.9031 10.7473 25.9675 10.0842V10.051C25.9675 9.95146 25.9998 9.81895 26.032 9.71937C26.0642 9.5206 26.0964 9.32144 26.1289 9.08934V8.79099C26.1289 8.19409 25.6771 7.69678 25.1289 7.69678C24.8707 7.69678 24.6126 7.82929 24.4191 8.02825C24.2257 8.22722 24.1289 8.49244 24.1289 8.79099V9.05622C24.1289 9.28831 24.1611 9.48728 24.2255 9.68624C24.2578 9.78583 24.2578 9.88521 24.29 10.0179V10.051C24.3544 10.7142 24.4513 11.3111 24.3869 11.8417C24.3546 12.0738 24.2255 12.1732 24.1289 12.2728L24.0644 12.3391L24.032 12.7701C23.4513 12.8364 22.8707 12.9026 22.29 13.0353C19.8062 13.5991 17.6126 14.8925 15.9031 16.7493L15.5804 16.5172H15.516C15.4515 16.5172 15.3869 16.5503 15.3224 16.5503C15.2255 16.5503 15.1289 16.5172 15.032 16.4509C14.6126 16.1526 14.1933 15.7213 13.7417 15.224C13.6773 15.1577 13.6128 15.0581 13.516 14.9919C13.3869 14.826 13.2578 14.6933 13.0964 14.5277C13.0642 14.4944 12.9998 14.4614 12.9353 14.395C12.9031 14.3619 12.8709 14.3619 12.8709 14.3287C12.671 14.159 12.4203 14.0653 12.1611 14.0633C11.8707 14.0633 11.5804 14.196 11.4191 14.4281C11.0964 14.8592 11.1933 15.5223 11.6449 15.9203C11.6771 15.9203 11.6771 15.9536 11.7093 15.9536C11.7738 15.9867 11.8062 16.053 11.8707 16.0861C12.0642 16.2186 12.2255 16.3182 12.4191 16.4178C12.516 16.4509 12.6126 16.5172 12.7095 16.5836C13.29 16.9482 13.774 17.2468 14.1611 17.6116C14.3224 17.7772 14.3224 17.9431 14.3224 18.1089V18.1751L14.6449 18.4737C14.5804 18.5731 14.516 18.6395 14.4835 18.7389C12.8707 21.3586 12.2578 24.4425 12.6771 27.4933L12.2578 27.6258C12.2578 27.6591 12.2255 27.6591 12.2255 27.692C12.1611 27.8247 12.0642 27.9574 11.8707 28.0568C11.3869 28.2227 10.8062 28.2891 10.1289 28.3554H10.0964C9.99976 28.3554 9.87066 28.3554 9.77398 28.3885C9.58042 28.3885 9.38687 28.4216 9.16109 28.4548C9.09663 28.4548 9.03218 28.4881 8.96753 28.4881C8.9353 28.4881 8.90308 28.4881 8.87066 28.5212C8.28999 28.6537 7.93511 29.2175 8.03198 29.7479C8.12886 30.2123 8.5482 30.5109 9.06421 30.5109C9.16109 30.5109 9.22554 30.5109 9.32241 30.4775C9.35464 30.4775 9.38687 30.4775 9.38687 30.4444C9.45132 30.4444 9.51577 30.4113 9.58023 30.4113C9.8062 30.345 9.96753 30.2788 10.1611 30.1792C10.2578 30.1461 10.3544 30.0796 10.4513 30.0467H10.4835C11.0964 29.8144 11.6449 29.6154 12.1611 29.5492H12.2255C12.4191 29.5492 12.5482 29.6486 12.6449 29.715C12.6771 29.715 12.6771 29.7481 12.7093 29.7481L13.1611 29.6819C13.9353 32.1355 15.4191 34.3242 17.3869 35.9159C17.8384 36.2805 18.29 36.5791 18.774 36.8776L18.5804 37.3085C18.5804 37.3418 18.6126 37.3418 18.6126 37.3747C18.6771 37.5074 18.7416 37.6733 18.6771 37.9054C18.4837 38.4029 18.1933 38.9002 17.8384 39.464V39.4971C17.774 39.5967 17.7095 39.6629 17.6451 39.7623C17.516 39.9282 17.4191 40.094 17.29 40.293C17.2578 40.3261 17.2255 40.3923 17.1933 40.4588C17.1933 40.4919 17.1611 40.5251 17.1611 40.5251C16.9031 41.0888 17.0966 41.7189 17.5804 41.951C17.7093 42.0172 17.8384 42.0505 17.9675 42.0505C18.3546 42.0505 18.7417 41.7851 18.9353 41.4203C18.9353 41.3872 18.9675 41.3541 18.9675 41.3541C18.9998 41.2878 19.032 41.2215 19.0642 41.1882C19.1611 40.9561 19.1933 40.7903 19.2578 40.5913L19.3546 40.293C19.5804 39.6298 19.7417 39.0992 20.032 38.635C20.1609 38.436 20.3224 38.4029 20.4513 38.3364C20.4835 38.3364 20.4835 38.3364 20.5158 38.3033L20.7417 37.8722C22.1611 38.436 23.7095 38.7344 25.2578 38.7344C26.1933 38.7344 27.1611 38.635 28.0644 38.4029C28.6328 38.2722 29.193 38.1061 29.7418 37.9054L29.9351 38.2702C29.9675 38.2702 29.9675 38.2702 29.9998 38.3033C30.1611 38.3364 30.29 38.4029 30.4191 38.6018C30.6771 39.066 30.8707 39.6298 31.0964 40.2598V40.293L31.1933 40.5913C31.2578 40.7903 31.29 40.9893 31.3867 41.1882C31.4191 41.2545 31.4513 41.2878 31.4835 41.3541C31.4835 41.3872 31.516 41.4203 31.516 41.4203C31.7093 41.8182 32.0964 42.0505 32.4835 42.0505C32.6126 42.0505 32.7417 42.0172 32.8707 41.951C33.0964 41.8184 33.29 41.6193 33.3546 41.3541C33.4191 41.0888 33.4191 40.7903 33.2902 40.5251C33.2902 40.4919 33.2578 40.4919 33.2578 40.4588C33.2255 40.3925 33.1933 40.3263 33.1611 40.293C33.0642 40.094 32.9353 39.9282 32.8062 39.7623C32.7417 39.6629 32.6773 39.5967 32.6128 39.4973V39.464C32.2578 38.9002 31.9351 38.4029 31.774 37.9054C31.7095 37.6733 31.774 37.5408 31.8062 37.3749C31.8062 37.3418 31.8384 37.3418 31.8384 37.3087L31.6771 36.9107C33.3869 35.8828 34.8384 34.4236 35.9353 32.6331C36.516 31.7045 36.9675 30.6765 37.29 29.6486L37.6771 29.7148C37.7095 29.7148 37.7095 29.6817 37.7416 29.6817C37.8707 29.6154 37.9675 29.516 38.1611 29.516H38.2255C38.7417 29.5823 39.29 29.7811 39.9031 30.0134H39.9353C40.032 30.0465 40.1287 30.1127 40.2255 30.1459C40.4191 30.2455 40.5804 30.3117 40.8062 30.3782C40.8707 30.3782 40.9351 30.4113 40.9998 30.4113C41.032 30.4113 41.0642 30.4113 41.0964 30.4444C41.1933 30.4775 41.2578 30.4775 41.3546 30.4775C41.8384 30.4775 42.2578 30.1461 42.3869 29.715C42.3869 29.3171 42.032 28.7864 41.4513 28.6208V28.6206ZM26.5158 26.9957L25.0964 27.6922L23.6771 26.9957L23.3224 25.4373L24.29 24.1773H25.8707L26.8384 25.4373L26.516 26.9957H26.5158ZM34.9353 23.5472C35.1855 24.6438 35.2618 25.7746 35.1611 26.8962L30.2255 25.4373C29.774 25.3048 29.516 24.8404 29.6126 24.3762C29.6449 24.2435 29.7095 24.1108 29.8062 24.0114L33.7095 20.3969C34.2578 21.3255 34.6771 22.3866 34.9353 23.547V23.5472ZM32.1611 18.4074L27.9353 21.4913C27.5804 21.7234 27.0964 21.657 26.8062 21.2924C26.7095 21.1928 26.6773 21.0601 26.6449 20.9276L26.3546 15.5223C28.5515 15.7824 30.5981 16.7993 32.1611 18.4074ZM22.8062 15.688C23.1611 15.6217 23.4835 15.5555 23.8384 15.4892L23.5482 20.7946C23.516 21.2588 23.1611 21.6568 22.6771 21.6568C22.5482 21.6568 22.3869 21.6236 22.29 21.5574L17.9998 18.4074C19.3224 17.0478 20.9675 16.1192 22.8062 15.6882V15.688ZM16.4513 20.3967L20.29 23.9117C20.6449 24.2102 20.6771 24.7738 20.3869 25.1386C20.29 25.2711 20.1611 25.3707 19.9998 25.404L14.9998 26.8962C14.8062 24.6413 15.29 22.3532 16.4513 20.3967ZM15.5802 29.3831L20.7095 28.4877C21.1289 28.4546 21.516 28.7531 21.6126 29.1842C21.6449 29.3829 21.6449 29.549 21.5804 29.7148L19.6126 34.5892C17.8062 33.3954 16.3546 31.5716 15.5804 29.3831H15.5802ZM27.3546 35.982C26.6126 36.1478 25.8707 36.2472 25.0964 36.2472C23.9675 36.2472 22.8707 36.0484 21.8386 35.7167L24.3869 30.9749C24.6449 30.6763 25.0642 30.5438 25.4191 30.7428C25.5697 30.8376 25.7011 30.9614 25.8062 31.1074L28.29 35.7167C27.9998 35.8161 27.6771 35.8826 27.3544 35.982H27.3546ZM33.6449 31.3728C32.8384 32.6991 31.7738 33.7602 30.5482 34.5892L28.516 29.5819C28.4191 29.1842 28.5804 28.7531 28.9675 28.5539C29.0964 28.4877 29.2578 28.4546 29.4191 28.4546L34.5804 29.35C34.3869 30.0794 34.0642 30.7428 33.6449 31.3728Z" fill="white"/>
</svg>
