<svg width="100" height="100" viewBox="0 0 100 100" fill="none" xmlns="http://www.w3.org/2000/svg">
<g clip-path="url(#clip0_1914_2)">
<path d="M87.6878 50C87.6878 77.4245 69.0264 99.9954 46.3495 99.9954C23.6734 99.9954 5.01123 77.4232 5.01123 50C5.01123 22.5738 23.237 0.00454712 46.3495 0.00454712C68.5878 0.00454712 87.6878 22.5751 87.6878 50Z" fill="#495057"/>
<path d="M55.6739 76.3134C73.3349 85.1093 70.2706 62.8825 60.8563 45.8633C55.5204 36.2216 48.5617 28.1883 44.1727 24.3118C29.6198 11.453 20.6359 19.252 30.9123 44.6113C34.2349 52.8105 38.5023 58.3443 41.8355 63.5603C44.3809 67.5426 49.3389 69.5364 47.5924 71.4251C45.624 73.556 40.8585 64.1579 40.8585 64.1579C37.3388 59.0191 33.9839 53.5358 30.5263 46.0101C22.6271 28.8228 23.7661 11.2803 38.0652 18.9218C50.1999 25.4101 61.7905 43.608 66.4513 56.5313C68.6034 62.4993 74.4718 86.1092 55.7808 76.5634" fill="white"/>
<path d="M0.753906 64.8204C8.52342 58.5561 15.8898 54.5115 28.4255 49.4983C46.0409 42.4531 59.2985 37.7176 75.5664 27.8186C82.8479 23.3887 95.4822 13.4537 99.9999 4.81735C98.6474 8.16 94.4568 14.6662 92.5609 17.5433C70.4895 51.0007 23.4756 49.1036 1.06415 65.1658" fill="#495057"/>
<path d="M12.0253 40.3672C19.1361 40.4347 18.4384 40.3498 18.5215 40.4508C18.6456 40.4508 24.1992 52.0291 24.1992 52.1297C24.1992 52.1785 24.1579 48.0146 24.1579 42.8067C24.1579 42.2053 22.791 40.4512 22.8317 40.4512C24.8614 40.4512 27.5141 40.5013 27.5141 40.5013C26.5203 41.9048 26.3215 41.7889 26.3131 42.6569C26.2851 45.4452 26.2591 50.6001 26.3131 56.3891C26.3208 57.257 26.8519 57.5923 27.7224 59.096H21.2152C19.1017 54.8357 15.2287 46.8437 15.248 46.867C15.2778 46.9035 15.1645 51.8801 15.2886 55.8887C15.3304 57.2133 15.8278 57.6428 16.74 58.8464C16.74 58.8464 17.7892 58.8124 11.6421 58.896C13.5071 57.6928 13.2592 56.1896 13.2585 56.1395C13.1916 50.6001 13.2445 45.8641 13.2445 42.8067C13.2445 42.3055 13.2165 42.3551 11.9324 40.4508L12.0253 40.3672ZM34.2586 48.922C34.8556 46.4125 35.3657 44.1699 35.6079 42.707C35.6489 42.4561 35.1522 41.5543 34.3648 40.652L34.3091 40.5119C38.106 40.5268 42.0727 40.5526 42.0727 40.5526C43.1089 43.6092 45.4707 52.1798 47.2529 57.4433C47.7241 58.8332 48.5377 59.0968 48.5377 59.0968C45.3052 59.0471 39.3064 59.0811 39.3383 59.0471C40.954 57.2918 40.7468 57.2918 40.0422 54.7377H34.9867C33.9505 57.644 35.3096 59.0081 35.4835 58.9975C34.3329 59.0696 30.428 58.9975 30.428 58.9975C32.5416 57.192 32.4168 56.6412 32.4168 56.6412C32.9973 54.1405 33.67 51.401 34.259 48.9216L36.3332 48.922L35.4421 52.3801H39.4631L37.2247 45.4631L36.3336 48.9212L34.2593 48.9207L34.2586 48.922ZM68.9888 49.1724C69.5848 46.6637 70.0952 44.4203 70.3374 42.9573C70.3781 42.7069 69.8807 41.8051 69.0936 40.9019L69.0379 40.7627C72.8359 40.7776 76.8032 40.803 76.8032 40.803C77.8377 43.8605 80.2002 52.4302 81.9817 57.6937C82.4525 59.0853 83.2655 59.3472 83.2655 59.3472C80.035 59.2975 74.0359 59.3315 74.0671 59.2975C75.6832 57.5435 75.4767 57.5435 74.7721 54.9881H69.7155C68.6793 57.8949 70.0377 59.2585 70.2116 59.2487C69.0621 59.32 65.1561 59.2487 65.1561 59.2487C67.2697 57.4441 67.1459 56.8924 67.1459 56.8924C67.7265 54.3909 68.3988 51.6527 68.9888 49.1724H71.0628C70.6161 50.9027 70.1723 52.6318 70.1723 52.6318H74.1912L71.9528 45.7139C71.9528 45.7139 71.5087 47.4425 71.0628 49.1716L68.9888 49.1724ZM62.4512 45.0641C62.3688 41.5033 62.4512 40.3515 62.4512 40.3515C61.166 41.6052 61.8149 41.4452 58.5978 40.8026C49.3275 38.9509 48.6212 49.4283 53.6661 51.7783C57.9009 53.7518 59.4009 54.1388 58.7629 55.988C58.5557 56.5915 54.702 58.7959 50.7238 54.3345L50.8048 60.55C51.3026 59.9299 52.6708 58.7959 52.6708 58.7959C52.7112 58.7959 56.9828 61.0737 60.834 58.6957C66.761 55.0377 63.803 49.116 57.4778 46.7673C52.2141 44.8124 57.1875 40.2509 62.4084 45.1133L62.4512 45.0641ZM46.9314 4.54489C46.9312 4.65292 46.8956 4.75645 46.8326 4.83292C46.7696 4.90939 46.6841 4.95261 46.5949 4.95317C46.5057 4.9525 46.4203 4.90924 46.3573 4.8328C46.2943 4.75635 46.2587 4.65289 46.2584 4.54489C46.2584 4.32335 46.4109 4.13831 46.5949 4.13831C46.684 4.13864 46.7693 4.18156 46.8323 4.25771C46.8954 4.33386 46.931 4.43708 46.9314 4.54489ZM49.2662 10.7167C49.2662 10.9917 49.0776 11.2187 48.8518 11.2187C48.7419 11.2182 48.6367 11.1651 48.559 11.0711C48.4812 10.9771 48.4373 10.8497 48.4368 10.7167C48.4368 10.4425 48.624 10.2163 48.8518 10.2163C49.0779 10.2163 49.2662 10.4421 49.2662 10.7167ZM55.3232 20.8032C55.3232 21.0773 55.1374 21.3044 54.9085 21.3044C54.7989 21.3035 54.694 21.2504 54.6164 21.1566C54.5389 21.0628 54.4949 20.9359 54.4941 20.8032C54.4941 20.5282 54.6677 20.3007 54.8959 20.3007C55.1244 20.3015 55.3232 20.5282 55.3232 20.8032ZM45.5853 14.1938C45.5849 14.3017 45.5493 14.4051 45.4863 14.4813C45.4232 14.5575 45.3379 14.6005 45.2487 14.6009C45.1596 14.6005 45.0741 14.5576 45.011 14.4813C44.9478 14.4051 44.9121 14.3018 44.9115 14.1938C44.9115 13.971 45.064 13.7864 45.2487 13.7864C45.3379 13.7867 45.4234 13.8298 45.4864 13.9061C45.5495 13.9825 45.585 14.0859 45.5853 14.1938ZM49.2136 16.5124C49.213 16.6201 49.1773 16.7231 49.1144 16.7992C49.0515 16.8753 48.9663 16.9183 48.8774 16.919C48.7884 16.9184 48.7031 16.8754 48.6401 16.7994C48.577 16.7233 48.5413 16.6202 48.5405 16.5124C48.5405 16.2896 48.693 16.1054 48.8774 16.1054C49.0615 16.1054 49.2136 16.2896 49.2136 16.5124ZM44.4985 10.027C44.4985 10.302 44.3113 10.5291 44.0842 10.5291C43.857 10.5291 43.6698 10.3033 43.6698 10.027C43.6698 9.75282 43.857 9.52534 44.0842 9.52534C44.3113 9.52534 44.4985 9.75197 44.4985 10.027ZM39.0087 14.0686C39.0087 14.2923 38.8569 14.4761 38.6718 14.4761C38.5827 14.4755 38.4974 14.4324 38.4344 14.3561C38.3714 14.2798 38.3358 14.1765 38.3353 14.0686C38.3353 13.8458 38.4875 13.6612 38.6718 13.6612C38.761 13.6615 38.8465 13.7046 38.9096 13.7809C38.9727 13.8572 39.0084 13.9606 39.0087 14.0686ZM39.9903 14.8822C39.9899 14.9904 39.9543 15.094 39.8911 15.1704C39.828 15.2469 39.7424 15.2901 39.6531 15.2905C39.5638 15.29 39.4783 15.2468 39.4151 15.1703C39.352 15.0939 39.3163 14.9903 39.3158 14.8822C39.3198 14.7772 39.357 14.678 39.4199 14.6053C39.4827 14.5327 39.5662 14.4921 39.6531 14.4921C39.7399 14.4921 39.8235 14.5327 39.8863 14.6053C39.9491 14.678 39.9864 14.7772 39.9903 14.8822ZM40.9754 15.6971C40.9751 15.8051 40.9396 15.9087 40.8766 15.9851C40.8135 16.0616 40.7281 16.1048 40.6389 16.1054C40.5496 16.1048 40.4641 16.0616 40.401 15.9852C40.3379 15.9087 40.3023 15.8052 40.302 15.6971C40.302 15.4751 40.4545 15.2909 40.6389 15.2909C40.8236 15.2909 40.9754 15.4747 40.9754 15.6971ZM39.475 17.264C39.4741 17.3719 39.4382 17.475 39.3752 17.5512C39.3121 17.6274 39.2268 17.6706 39.1377 17.6715C39.0486 17.6709 38.9632 17.6278 38.9 17.5516C38.8369 17.4753 38.8011 17.372 38.8005 17.264C38.8005 17.0412 38.9526 16.857 39.1377 16.857C39.3218 16.857 39.475 17.0412 39.475 17.264ZM31.6518 23.9048C31.6513 24.0127 31.6155 24.116 31.5524 24.1921C31.4892 24.2683 31.4037 24.3111 31.3146 24.3113C31.1299 24.3113 30.9777 24.128 30.9777 23.9048C30.9777 23.6815 31.1302 23.4969 31.3146 23.4969C31.499 23.4969 31.6518 23.6811 31.6518 23.9048ZM33.1018 26.0357C33.101 26.1435 33.0653 26.2467 33.0022 26.3228C32.9392 26.399 32.8539 26.4421 32.7649 26.4427C32.6758 26.4421 32.5905 26.399 32.5274 26.3229C32.4643 26.2467 32.4285 26.1436 32.4276 26.0357C32.4276 25.8116 32.5801 25.6283 32.7649 25.6283C32.9496 25.6283 33.1018 25.8116 33.1018 26.0357ZM31.9491 60.432C31.9486 60.5399 31.9129 60.6431 31.8498 60.7193C31.7867 60.7956 31.7013 60.8386 31.6122 60.839C31.4275 60.839 31.2757 60.6548 31.2757 60.432C31.2757 60.2092 31.4275 60.0241 31.6122 60.0241C31.7973 60.0241 31.9491 60.2092 31.9491 60.432ZM32.1563 69.9214C32.1563 70.1964 31.9691 70.423 31.7419 70.423C31.5148 70.423 31.3276 70.1977 31.3276 69.9214C31.3276 69.6472 31.5148 69.4206 31.7419 69.4206C31.8515 69.4212 31.9565 69.4742 32.0341 69.5679C32.1116 69.6617 32.1556 69.7887 32.1563 69.9214ZM27.7003 74.7817C27.6997 74.8894 27.664 74.9924 27.6011 75.0685C27.5382 75.1446 27.453 75.1876 27.3641 75.1883C27.2751 75.1877 27.1898 75.1448 27.1268 75.0687C27.0637 74.9926 27.028 74.8895 27.0272 74.7817C27.0272 74.5572 27.1797 74.3738 27.3641 74.3738C27.5482 74.3738 27.7003 74.5568 27.7003 74.7817ZM22.3654 76.7501C22.3647 76.883 22.3207 77.0102 22.243 77.1041C22.1653 77.1981 22.0602 77.2511 21.9504 77.2518C21.8406 77.2513 21.7354 77.1983 21.6578 77.1043C21.5802 77.0104 21.5364 76.883 21.536 76.7501C21.536 76.4755 21.7232 76.2485 21.9504 76.2485C22.0601 76.2492 22.1652 76.3023 22.2429 76.3962C22.3206 76.4901 22.3646 76.6172 22.3654 76.7501ZM21.2773 72.3664C21.2773 72.6401 21.0901 72.8668 20.8636 72.8668C20.7541 72.8661 20.6492 72.8132 20.5716 72.7195C20.4941 72.6259 20.4501 72.499 20.4493 72.3664C20.4497 72.2334 20.4935 72.106 20.5711 72.0118C20.6487 71.9177 20.7538 71.8644 20.8636 71.8635C21.0901 71.8647 21.2773 72.0909 21.2773 72.3664ZM20.6564 75.1548C20.6564 75.3784 20.504 75.5618 20.3196 75.5618C20.1352 75.5618 19.9823 75.3784 19.9823 75.1548C19.9823 74.9328 20.1352 74.7473 20.3196 74.7473C20.504 74.7473 20.6564 74.9315 20.6564 75.1548ZM16.6667 72.8379C16.6661 72.9456 16.6306 73.0486 16.5677 73.1248C16.5049 73.201 16.4198 73.2441 16.3309 73.2449C16.2417 73.2445 16.1563 73.2015 16.0932 73.1253C16.03 73.0491 15.9943 72.9458 15.9936 72.8379C15.9936 72.6159 16.1458 72.4309 16.3309 72.4309C16.5146 72.4309 16.6667 72.6147 16.6667 72.8379ZM30.6016 80.6678C30.6016 80.8915 30.4624 81.0757 30.2783 81.0757C30.0936 81.0757 29.9281 80.8915 29.9281 80.6678C29.9281 80.445 30.0806 80.2604 30.2647 80.2604C30.4501 80.2604 30.6016 80.4446 30.6016 80.6678ZM34.7985 76.9415C34.7985 77.2165 34.6246 77.444 34.3967 77.444C34.1696 77.444 33.9698 77.2178 33.9698 76.9415C33.9698 76.6674 34.157 76.4407 34.3841 76.4407C34.4937 76.4414 34.5987 76.4943 34.6763 76.5881C34.7538 76.6818 34.7977 76.8088 34.7985 76.9415ZM35.2788 81.7331C35.2788 81.9568 35.1129 82.1418 34.9292 82.1418C34.8399 82.1411 34.7544 82.0979 34.6913 82.0213C34.6281 81.9448 34.5925 81.8413 34.592 81.7331C34.592 81.5111 34.7441 81.327 34.9292 81.327C35.1129 81.3265 35.2788 81.5099 35.2788 81.7331ZM52.5264 77.158C52.5258 77.2657 52.4902 77.3688 52.4274 77.4451C52.3646 77.5213 52.2795 77.5647 52.1906 77.5658C52.1013 77.5652 52.0158 77.522 51.9526 77.4457C51.8894 77.3694 51.8535 77.2661 51.8526 77.158C51.8526 76.9343 52.0048 76.751 52.1906 76.751C52.3743 76.751 52.5264 76.9343 52.5264 77.158ZM44.4985 80.6038C44.4982 80.7116 44.4626 80.815 44.3995 80.8912C44.3365 80.9675 44.2511 81.0104 44.162 81.0108C44.073 81.0102 43.9877 80.9672 43.9247 80.891C43.8617 80.8148 43.826 80.7116 43.8255 80.6038C43.8255 80.3818 43.978 80.1967 44.162 80.1967C44.3471 80.1967 44.4985 80.3809 44.4985 80.6038ZM66.1005 85.5566C66.0998 85.6644 66.0641 85.7676 66.001 85.8437C65.938 85.9199 65.8527 85.963 65.7637 85.9636C65.6745 85.9632 65.589 85.9202 65.5258 85.844C65.4627 85.7678 65.4268 85.6646 65.4261 85.5566C65.4261 85.3342 65.5789 85.1496 65.7637 85.1496C65.9477 85.1496 66.1005 85.3334 66.1005 85.5566ZM67.86 66.2888C67.8594 66.4218 67.8154 66.5491 67.7377 66.6432C67.66 66.7372 67.5548 66.7903 67.4449 66.7909C67.3352 66.7901 67.23 66.737 67.1524 66.643C67.0748 66.549 67.0309 66.4218 67.0302 66.2888C67.0302 66.0138 67.2171 65.7868 67.4449 65.7868C67.5548 65.7873 67.6601 65.8404 67.7378 65.9344C67.8155 66.0284 67.8595 66.1558 67.86 66.2888ZM64.5472 69.0135C64.5466 69.1216 64.5108 69.225 64.4476 69.3014C64.3844 69.3777 64.2989 69.4209 64.2096 69.4214C64.0259 69.4214 63.8734 69.2368 63.8734 69.0135C63.8734 68.7903 64.0259 68.607 64.2096 68.607C64.3947 68.607 64.5472 68.7899 64.5472 69.0135ZM67.8116 69.7987C67.8116 70.0733 67.6248 70.3012 67.3966 70.3012C67.1684 70.3012 66.9815 70.0746 66.9815 69.7987C66.9815 69.5245 67.1684 69.2971 67.3966 69.2971C67.6248 69.2971 67.8116 69.5245 67.8116 69.7987ZM64.5472 74.654C64.5466 74.7619 64.5107 74.8653 64.4475 74.9415C64.3843 75.0177 64.2988 75.0606 64.2096 75.061C64.1206 75.0602 64.0355 75.0171 63.9726 74.9409C63.9097 74.8647 63.8741 74.7617 63.8734 74.654C63.8734 74.4303 64.0259 74.2461 64.2096 74.2461C64.3947 74.2461 64.5472 74.4299 64.5472 74.654ZM72.9887 63.5641C72.9887 63.7865 72.8355 63.9716 72.6518 63.9716C72.5629 63.9707 72.4777 63.9275 72.4148 63.8512C72.3519 63.775 72.3163 63.6719 72.3157 63.5641C72.3157 63.3409 72.4678 63.1575 72.6518 63.1575C72.8359 63.1575 72.9887 63.3409 72.9887 63.5641ZM73.8056 66.0384C73.8056 66.313 73.6327 66.5405 73.4045 66.5405C73.177 66.5405 72.9768 66.3143 72.9768 66.0384C72.9768 65.7634 73.1637 65.5372 73.3908 65.5372C73.6187 65.5381 73.8056 65.7634 73.8056 66.0384ZM79.6214 68.9838C79.6214 69.2584 79.4363 69.4855 79.2067 69.4855C79.0968 69.485 78.9916 69.4321 78.9138 69.3381C78.8361 69.2442 78.7922 69.1168 78.7916 68.9838C78.7922 68.8509 78.8362 68.7235 78.9139 68.6295C78.9916 68.5355 79.0968 68.4824 79.2067 68.4818C79.3165 68.4822 79.4218 68.5353 79.4995 68.6293C79.5772 68.7234 79.621 68.8508 79.6214 68.9838ZM73.7141 74.2172C73.7132 74.3252 73.6773 74.4284 73.6142 74.5045C73.551 74.5807 73.4656 74.6237 73.3765 74.6242C73.2874 74.6237 73.2021 74.5807 73.139 74.5045C73.0759 74.4283 73.0402 74.3251 73.0396 74.2172C73.0396 73.9936 73.1924 73.8094 73.3765 73.8094C73.5605 73.8094 73.7141 73.9923 73.7141 74.2172ZM77.4444 69.9557C77.4439 70.0635 77.4084 70.1667 77.3454 70.2429C77.2825 70.3191 77.1972 70.3622 77.1082 70.3627C77.0192 70.3621 76.9339 70.319 76.871 70.2428C76.808 70.1667 76.7723 70.0635 76.7717 69.9557C76.7717 69.7334 76.9249 69.5483 77.1082 69.5483C77.2922 69.5483 77.4444 69.7321 77.4444 69.9557ZM76.7573 76.5341C76.7568 76.6419 76.7213 76.7451 76.6583 76.8213C76.5954 76.8975 76.5101 76.9405 76.4211 76.9411C76.3319 76.9409 76.2463 76.898 76.1831 76.8217C76.1199 76.7455 76.0841 76.6421 76.0835 76.5341C76.0835 76.3121 76.2356 76.1267 76.4211 76.1267C76.6051 76.1267 76.7573 76.3109 76.7573 76.5341ZM78.3383 65.6013C78.3383 65.9455 78.1041 66.2277 77.8198 66.2277C77.5359 66.2277 77.3021 65.9455 77.3021 65.6013C77.3021 65.2575 77.5359 64.9753 77.8198 64.9753C78.1041 64.9753 78.3383 65.2575 78.3383 65.6013Z" fill="white"/>
<path d="M77.819 63.6914L77.6651 65.4141L76.2534 65.6026L77.6774 65.7893L77.833 67.5756L77.9887 65.7893L79.3867 65.5695L77.976 65.4128L77.819 63.6914ZM74.7102 76.4997C74.7102 76.8443 74.4764 77.1274 74.1921 77.1274C74.0547 77.1267 73.9232 77.0604 73.8261 76.9428C73.7289 76.8252 73.6741 76.666 73.6736 76.4997C73.6736 76.1559 73.9078 75.8737 74.1921 75.8737C74.3291 75.8744 74.4604 75.9405 74.5575 76.0577C74.6545 76.1749 74.7094 76.3338 74.7102 76.4997Z" fill="white"/>
<path d="M74.195 74.5899L74.0394 76.3134L72.6284 76.5005L74.0523 76.689L74.2083 78.4736L74.364 76.689L75.7613 76.4691L74.3496 76.3121L74.195 74.5899ZM36.0675 24.7497C36.0675 25.0935 35.8337 25.3762 35.5497 25.3762C35.4125 25.3757 35.281 25.3096 35.1839 25.1923C35.0868 25.0749 35.0319 24.9159 35.0312 24.7497C35.0312 24.4051 35.2647 24.1229 35.5497 24.1229C35.8337 24.1237 36.0675 24.406 36.0675 24.7497Z" fill="white"/>
<path d="M35.5487 22.8391L35.393 24.5618L33.981 24.7502L35.4056 24.9365L35.5613 26.7237L35.7162 24.9365L37.115 24.7184L35.7029 24.5609L35.5487 22.8391ZM55.3376 9.58901C55.3376 9.93278 55.1034 10.2159 54.8191 10.2159C54.5348 10.2159 54.3017 9.93278 54.3017 9.58901C54.3017 9.24438 54.5344 8.9613 54.8191 8.9613C55.1037 8.9613 55.3376 9.24523 55.3376 9.58901Z" fill="white"/>
<path d="M54.8193 7.67661L54.665 9.40056L53.2537 9.58899L54.678 9.77616L54.8323 11.5621L54.9879 9.77616L56.3859 9.55631L54.9742 9.39971L54.8193 7.67661ZM31.91 86.5289C31.91 86.8736 31.6762 87.1558 31.3923 87.1558C31.255 87.1552 31.1235 87.089 31.0264 86.9716C30.9293 86.8542 30.8744 86.6951 30.8738 86.5289C30.8738 86.1856 31.1076 85.9016 31.3923 85.9016C31.6762 85.9021 31.91 86.186 31.91 86.5289Z" fill="white"/>
<path d="M31.4043 84.6152L31.2494 86.3392L29.8376 86.5268L31.262 86.7139L31.4173 88.4999L31.5722 86.7139L32.971 86.4949L31.5596 86.3379L31.4043 84.6152Z" fill="white"/>
<path d="M99.9962 4.81778C93.6963 27.4439 68.4596 44.9156 47.2156 61.594C34.3994 71.6597 21.675 83.2449 12.9152 93.1022C10.6064 95.7017 13.3856 92.1299 12.5008 93.2278C24.7256 76.1873 38.7881 66.0372 46.559 59.6477C59.7012 48.8384 67.1762 46.1141 89.8499 20.8299" fill="#495057"/>
<path d="M6.00864 60.8734C3.74611 62.2124 1.71951 63.5361 0 64.8285L1.04608 65.2894C2.54999 64.1685 4.35539 62.9993 6.25719 61.9692L6.00864 60.8734ZM17.953 86.1932C15.8004 88.4657 13.6835 90.787 11.6033 93.1561L11.5086 94.8839C13.4718 92.4346 15.8833 89.7918 18.6664 86.9865" fill="#495057"/>
<path d="M55.6739 76.3134C73.3349 85.1093 70.2706 62.8825 60.8563 45.8633C55.52 36.2215 48.94 28.5728 44.1723 24.3118C38.6054 19.3356 38.062 18.923 38.062 18.923C50.4937 26.0663 61.7874 43.6088 66.4474 56.5329C68.6002 62.5006 74.4683 86.1105 55.777 76.5646" fill="white"/>
</g>
<defs>
<clipPath id="clip0_1914_2">
<rect width="100" height="100" fill="white"/>
</clipPath>
</defs>
</svg>
