<svg width="50" height="50" viewBox="0 0 50 50" fill="none" xmlns="http://www.w3.org/2000/svg">
<path d="M2.53961 25.4593C2.41209 25.2442 2.25668 25.0734 2.08533 24.9533C1.91397 24.8331 1.73067 24.7762 1.54338 24.7762C1.35608 24.7698 1.17278 24.8331 1.00143 24.9469C0.830073 25.0671 0.674661 25.2379 0.547143 25.453C0.415641 25.6617 0.312032 25.9084 0.244288 26.1804C0.176545 26.4587 0.14068 26.7496 0.14068 27.0406C0.136695 27.3379 0.17256 27.6289 0.244288 27.9009C0.316017 28.1728 0.419625 28.4195 0.551128 28.6283C0.678683 28.8434 0.833256 29.0137 1.00486 29.1281C1.17646 29.2425 1.36128 29.2985 1.54736 29.2924C1.73305 29.294 1.91702 29.236 2.08823 29.1219C2.25943 29.0078 2.41432 28.8398 2.54359 28.6283C2.67908 28.4258 2.78269 28.1792 2.85442 27.9072C2.92615 27.6352 2.96201 27.3442 2.96201 27.0469C2.96201 26.7496 2.92615 26.4587 2.85442 26.1867C2.77871 25.9084 2.6751 25.6617 2.53961 25.4593ZM19.2165 20.3232C19.1966 21.74 19.2405 23.1632 19.3441 24.5737H19.2962C19.1847 24.2259 18.9376 23.5807 18.559 22.6382L9.47339 0H6.71582V28.9002H8.8358V8.00782C8.85971 6.68583 8.82385 5.36384 8.73618 4.04186H8.81588C8.96731 4.67439 9.16257 5.28162 9.39369 5.85089L18.7264 28.9002H21.3365V0H19.2165V20.3232ZM35.7102 25.7249H28.2185V15.712H34.7737V12.6632H28.2185V3.06144H35.2519V0H26.0467V28.9002H35.6982L35.7102 25.7249ZM37.3321 0V3.06144H42.5523V28.9002H44.6723V3.06144H49.9523V0H37.3321ZM16.5546 36.0858C16.0251 36.4211 15.5469 36.9322 15.1519 37.5849C14.7455 38.2743 14.4267 39.084 14.2194 39.9758C14.0122 40.8677 13.9206 41.8102 13.9445 42.7526C13.9046 44.4984 14.2872 46.2062 15.0204 47.5092C15.387 48.1228 15.8333 48.5972 16.3275 48.9135C16.8216 49.2297 17.3516 49.3689 17.8816 49.3309C18.6786 49.3752 19.4716 49.1095 20.1929 48.5529L20.2008 47.0791C19.5393 47.6927 18.7862 47.9963 18.0211 47.9647C17.6106 47.99 17.2002 47.8761 16.8216 47.6294C16.443 47.3827 16.1003 47.0032 15.8214 46.5225C15.2381 45.447 14.9383 44.056 14.9846 42.6388C14.9367 41.1397 15.2595 39.6722 15.8812 38.5463C16.176 38.0276 16.5387 37.6228 16.9412 37.3445C17.3452 37.0717 17.7814 36.9402 18.2203 36.9587C18.9177 36.9397 19.6031 37.2117 20.2128 37.7493V36.1617C19.5805 35.757 18.9017 35.5673 18.2203 35.6051C17.6505 35.5924 17.0806 35.7505 16.5546 36.0858ZM26.489 40.6147C26.2227 40.17 25.8989 39.8222 25.5398 39.5951C25.1807 39.368 24.7949 39.267 24.4089 39.299C23.9985 39.2674 23.592 39.3749 23.2095 39.609C22.8269 39.843 22.4802 40.1972 22.1853 40.6463C21.8984 41.1523 21.6792 41.7406 21.5358 42.3858C21.3923 43.0309 21.3325 43.7077 21.3604 44.3909C21.3206 45.6876 21.6035 46.9589 22.1455 47.9267C22.4165 48.3885 22.7432 48.7553 23.1098 49.002C23.4764 49.2424 23.871 49.3626 24.2655 49.3373C24.6679 49.3562 25.0704 49.236 25.445 48.9894C25.8196 48.7427 26.1543 48.3695 26.4293 47.8951C26.9881 46.8951 27.2772 45.5867 27.2342 44.2517C27.282 42.9234 27.0151 41.6267 26.489 40.6147ZM25.7598 47.1108C25.5845 47.432 25.3651 47.6852 25.1184 47.8508C24.8718 48.0163 24.6045 48.0899 24.3372 48.0659C24.0622 48.0848 23.7913 48.0026 23.5402 47.8382C23.2892 47.6674 23.066 47.4144 22.8827 47.0855C22.5008 46.335 22.309 45.3855 22.3447 44.4225C22.3089 43.4294 22.5001 42.449 22.8827 41.6647C23.062 41.3358 23.2852 41.0764 23.5362 40.8993C23.7873 40.7285 24.0622 40.6463 24.3332 40.6653C24.6042 40.64 24.8712 40.7222 25.1182 40.893C25.3653 41.0638 25.5845 41.3231 25.7598 41.652C26.122 42.4473 26.2981 43.418 26.2579 44.3972C26.2978 45.3587 26.1224 46.3264 25.7598 47.1108ZM30.3783 39.9948C30.0795 40.4186 29.8603 40.9689 29.7527 41.5824V39.5963H28.7565V49.1095H29.7527V44.258C29.7208 43.3788 29.8643 42.4996 30.1592 41.7532C30.2668 41.4812 30.4102 41.2535 30.5856 41.0954C30.7609 40.9373 30.9562 40.8424 31.1554 40.8361C31.4104 40.8044 31.6655 40.912 31.8807 41.1397V39.571C31.6974 39.4761 31.5061 39.4319 31.3148 39.4445C30.9721 39.4382 30.6413 39.6343 30.3783 39.9948ZM37.7106 43.9228C37.7584 42.7147 37.5313 41.5255 37.073 40.5641C36.8459 40.1593 36.5669 39.8367 36.2521 39.6279C35.9373 39.4192 35.5986 39.3243 35.2599 39.3559C34.8853 39.337 34.5107 39.4572 34.164 39.6975C33.8213 39.9379 33.5145 40.2984 33.2674 40.7538C32.7263 41.7559 32.4457 43.0471 32.4824 44.3656C32.4306 45.6812 32.6896 46.9842 33.2076 48.0089C33.4587 48.4454 33.7695 48.787 34.1122 49.0147C34.4549 49.2424 34.8295 49.3373 35.2001 49.312C35.9373 49.3689 36.6666 49.0526 37.2802 48.4074V46.9779C36.7559 47.6541 36.1028 48.0287 35.4273 48.0406C35.1682 48.0659 34.9052 48.0026 34.6621 47.8508C34.4191 47.699 34.1959 47.4776 34.0126 47.1803C33.6566 46.4964 33.4759 45.6247 33.5065 44.7388H37.7186L37.7106 43.9228ZM33.4985 43.48C33.5504 42.7273 33.7576 42.0189 34.0843 41.4686C34.2308 41.2188 34.4085 41.0206 34.6062 40.8865C34.8039 40.7525 35.0171 40.6858 35.232 40.6906C35.4392 40.6716 35.6424 40.7285 35.8337 40.855C36.025 40.9815 36.1924 41.1713 36.3278 41.418C36.6068 42.0062 36.7463 42.7273 36.7263 43.4611L33.4985 43.48Z" fill="#495057"/>
</svg>
