<svg width="100" height="100" viewBox="0 0 100 100" fill="none" xmlns="http://www.w3.org/2000/svg">
<path fill-rule="evenodd" clip-rule="evenodd" d="M0 0H100V100H0V0Z" fill="white"/>
<path fill-rule="evenodd" clip-rule="evenodd" d="M22.1734 37.0816C17.0472 43.1016 12.1322 50.567 12.0829 56.1471C12.0637 58.2467 12.734 60.0796 14.3417 61.4678C16.6555 63.4673 19.2049 64.1723 21.7418 64.1765C25.449 64.1816 29.1304 62.686 32.0128 61.5327C36.8671 59.5914 90.5272 36.2889 90.5272 36.2889C91.0449 36.0295 90.9479 35.7063 90.2999 35.8676C90.0385 35.933 31.8826 51.6933 31.8826 51.6933C30.781 52.0049 29.6427 52.1678 28.498 52.1779C24.0286 52.2043 20.0515 49.7235 20.0837 44.4956C20.0962 42.45 20.7223 39.9832 22.1734 37.0816Z" fill="#495057"/>
</svg>
