<svg width="100" height="100" viewBox="0 0 100 100" fill="none" xmlns="http://www.w3.org/2000/svg">
<path d="M0 0H100V100H0V0Z" fill="white"/>
<path d="M73.8178 57.9138C73.8178 59.4977 71.928 61.4448 70.3909 61.4448H68.9914C68.9929 51.7512 68.9929 40.8838 68.9914 38.9549C68.9908 38.8978 69.0015 38.8411 69.0229 38.7881C69.0442 38.7351 69.0758 38.6869 69.1158 38.6461C69.1558 38.6054 69.2035 38.5729 69.2561 38.5506C69.3087 38.5283 69.3651 38.5166 69.4222 38.5161H73.3851C73.623 38.5161 73.818 38.7158 73.818 38.9583V57.9138H73.8178ZM67.3602 64.8463C67.3602 65.8489 66.8696 67.5285 63.5834 67.5285C57.2148 67.5285 53.3053 62.539 53.3053 58.9605C53.3053 58.9605 53.2982 47.3898 53.2982 38.9586C53.2975 38.9013 53.3082 38.8446 53.3296 38.7915C53.3509 38.7385 53.3826 38.6901 53.4227 38.6494C53.4628 38.6086 53.5106 38.5761 53.5633 38.5539C53.616 38.5317 53.6726 38.5201 53.7298 38.5198H57.6974C57.9356 38.5198 58.1312 38.7182 58.1312 38.9622V57.5535C58.1312 60.6253 60.5623 63.1168 63.5593 63.1168H67.3624L67.3602 64.8463ZM73.6858 36.8488H69.1208C68.1502 36.8488 67.3598 37.6595 67.3598 38.6539V61.4467H63.5565C61.4581 61.4467 59.7575 59.7033 59.7575 57.5531V38.6539C59.7575 37.6571 58.9681 36.8479 57.9955 36.8479H53.4287C52.4561 36.8479 51.6669 37.6571 51.6654 38.6539C51.6631 46.8947 51.6725 58.961 51.6725 58.961C51.6732 65.3033 58.6093 69.1978 63.5821 69.1978C66.9176 69.1978 68.9893 67.5268 68.9893 64.8349V63.1164H70.3903C72.8476 63.1164 75.4469 60.4428 75.4469 57.9138V38.6539C75.4492 37.6571 74.6601 36.8479 73.686 36.8479V36.8488H73.6858ZM46.7062 61.0415C46.7068 61.0986 46.6961 61.1553 46.6747 61.2082C46.6533 61.2612 46.6216 61.3094 46.5815 61.3501C46.5414 61.3908 46.4937 61.4232 46.441 61.4453C46.3884 61.4675 46.3319 61.4791 46.2748 61.4794H42.3072C42.0658 61.4794 41.8723 61.2792 41.8734 61.038V42.4465C41.8734 39.375 39.4416 36.8834 36.4453 36.8834H32.642V35.1535C32.642 34.153 33.1326 32.4713 36.4189 32.4713C42.7877 32.4713 46.6983 37.4606 46.6983 41.0393C46.6983 41.0393 46.7054 52.6661 46.7054 61.0413H46.7062V61.0415ZM26.6152 61.4832C26.3738 61.4761 26.1808 61.2816 26.1836 61.0402V42.0881C26.1836 40.504 28.0736 38.5544 29.61 38.5544H31.0108C31.0087 52.4359 31.0087 59.539 31.0108 61.0393C31.0119 61.1552 30.967 61.2669 30.886 61.3498C30.805 61.4327 30.6944 61.4801 30.5785 61.4817H26.6159L26.6152 61.4832ZM48.3267 41.0395C48.3276 34.6965 41.3912 30.802 36.4191 30.802C33.0827 30.802 31.0108 32.4728 31.0108 35.1649V36.8834H29.6107C27.1525 36.8834 24.5532 39.557 24.5532 42.0862V61.3459C24.5532 62.3427 25.3424 63.1519 26.3145 63.1519H30.8786C30.907 63.1519 30.9313 63.1441 30.9596 63.1441C31.8924 63.0992 32.6397 62.3137 32.6397 61.3459V38.5531H36.4436C38.5411 38.5531 40.2426 40.2965 40.2426 42.4467V61.3461C40.2426 62.3429 41.032 63.1521 42.0039 63.1521H46.5717C47.5442 63.1521 48.3329 62.3451 48.3329 61.3461C48.3364 52.9516 48.3273 41.0391 48.3273 41.0391L48.3267 41.0395Z" fill="#495057"/>
</svg>
