<svg width="100" height="100" viewBox="0 0 100 100" fill="none" xmlns="http://www.w3.org/2000/svg">
<path fill-rule="evenodd" clip-rule="evenodd" d="M0 0H100V100H0V0Z" fill="white"/>
<path fill-rule="evenodd" clip-rule="evenodd" d="M75.8435 55.6263C75.8435 59.8819 73.6568 67.2213 64.0929 67.2213C59.6427 67.2213 57.6122 64.9962 55.1925 64.84C54.0211 64.6444 53.8255 66.206 53.8255 66.5178H52.6541V54.612H54.0211C54.0211 58.3593 57.2615 65.8542 64.0929 65.8542C70.378 65.8542 71.2372 61.0917 71.2372 59.3745C71.2372 48.951 52.4595 59.2184 52.4595 43.525C52.3034 36.5369 57.7688 32.7896 63.0392 32.7896C66.6303 32.5946 69.7145 35.4832 71.0815 35.327C71.9396 35.327 72.2913 34.9758 72.2913 33.297H73.6573V44.0324H72.2913C72.2913 41.456 70.5736 34.1556 63.0392 34.1556C59.1353 34.3118 57.2615 36.693 57.2615 39.0743C57.2615 48.7948 75.6879 38.7225 75.8435 55.6263ZM15.6067 61.2479L16.3097 63.2784H26.8894V61.2479H15.6067ZM20.721 35.6777H26.8894V33.6088H20.721V35.6777ZM13.3816 33.6088H4.16895V35.6777H14.0846L13.3816 33.6088ZM4.16895 66.7134H10.3368V64.6439H4.16895V66.7134ZM26.8894 46.0619V43.8362H20.721C20.721 44.5392 20.721 45.3978 20.916 46.0619H26.8894ZM21.2283 57.6568V59.8819H26.8889V57.6568H21.2283ZM21.0727 56.4854H26.8894V54.2603H21.0727V56.4854ZM10.3368 57.6568H4.16895V59.8819H10.3374L10.3368 57.6568ZM4.16895 63.2784H10.3368V61.2479H4.16895V63.2784ZM17.6762 47.4284H11.7033C11.8595 48.1308 12.2112 48.7948 12.3669 49.4973H18.1836C17.9961 48.8123 17.8269 48.1224 17.6762 47.4284ZM19.3545 54.2603H13.7334C13.7334 54.612 13.7334 54.7682 13.8895 54.9238L14.2407 56.4854H20.0574C19.7062 55.6263 19.55 54.9238 19.3545 54.2603ZM18.4959 50.8638H12.7181C12.8743 51.5273 13.0698 52.1914 13.226 52.8933H19.0427C18.8476 52.1914 18.6909 51.5273 18.4959 50.8638ZM21.0727 52.8933H26.8894V50.8638H21.0727V52.8933ZM20.4086 58.007V57.6563H14.592L15.2555 59.8814H21.0722L20.4086 58.007ZM20.721 39.0738H26.8894V37.0442H20.721V39.0738ZM17.1688 66.7134H26.8894V64.6439H16.622L17.1688 66.7134ZM16.1146 42.6653L15.4511 40.4402H9.82947C10.1418 41.1432 10.3374 41.8067 10.493 42.6653H16.1146ZM26.8894 40.4402H20.721V42.6653H26.8894V40.4402ZM17.1688 45.9057L16.622 43.8368H10.8442C11.0009 44.6959 11.196 45.3983 11.3521 46.0624H17.325C17.1688 46.0619 17.1688 45.9057 17.1688 45.9057ZM9.6344 43.8368H4.16895V46.0624H9.82947C9.82947 45.3983 9.6344 44.5397 9.6344 43.8368ZM9.98562 51.3712V50.8633H4.16895V52.8928H10.1418C10.1418 52.387 10.1418 51.8791 9.98562 51.3712ZM21.0727 49.4973H26.8894V47.4284H20.916C20.916 48.1308 20.916 48.7948 21.0727 49.4973ZM9.47773 40.4402H4.16895V42.6653H9.6344C9.47773 41.8067 9.47773 41.1432 9.47773 40.4402ZM14.4363 37.0442H4.16895V39.0738H15.0993L14.4363 37.0442ZM9.82947 47.4284H4.16895V49.4973H9.98562C9.98562 48.7948 9.82947 48.1308 9.82947 47.4284ZM10.1418 54.2603H4.16895V56.4854H10.3374C10.3368 55.7819 10.1418 54.9238 10.1418 54.2603ZM41.3725 46.0619H47.3453L48.2039 43.8362H42.0754C41.8798 44.5397 41.7237 45.3983 41.3725 46.0619ZM37.7809 39.0738L37.1168 37.0442H29.9342L30.7928 39.0738H37.7809ZM40.5133 49.4973H45.9788L46.8374 47.4284H41.0601C40.8651 48.1308 40.7089 48.7948 40.5133 49.4973ZM36.4538 52.8933H44.6128L45.4714 50.8638H35.5947L36.4538 52.8933ZM36.9612 66.7134H44.1049V64.6439H36.9612V66.7134ZM42.739 41.1432C42.739 41.6506 42.5828 42.158 42.4266 42.6653H48.7118L49.5704 40.4402H42.934L42.739 41.1432ZM38.9912 42.6653V42.3141L38.3277 40.4402H31.3001L32.1593 42.6653H38.9912Z" fill="#495057"/>
<path fill-rule="evenodd" clip-rule="evenodd" d="M34.2286 47.4284L35.0878 49.4973H40.5138C40.5138 49.1461 40.3576 48.287 40.2015 47.4284H34.2286ZM33.7207 46.0619H39.8497C39.6763 45.321 39.5072 44.5791 39.3424 43.8363H32.8621L33.7207 46.0619ZM36.9611 56.4854H44.1049V54.2603H36.9611V56.4854ZM36.9611 59.8819H44.1049V57.6568H36.9611V59.8819ZM50.0782 39.0738L50.9368 37.0443H43.9487L43.4413 39.0738H50.0782ZM52.1477 33.6088H44.964L44.3004 35.6778H51.4442L52.1477 33.6088ZM36.9611 63.2785H44.1049V61.2479H36.9611V63.2785ZM36.102 33.6088H28.7632L29.4267 35.6778H36.766L36.102 33.6088ZM79.0838 42.6654H86.4231V40.4403H79.0838V42.6654ZM79.0838 66.7134H95.8314V64.6439H79.0838V66.7134ZM79.0838 46.0619H86.4231V43.8368H79.0838V46.0619ZM79.0838 35.6778H95.8314V33.6088H79.0838V35.6778ZM79.0838 63.2785H95.8314V61.2479H79.0838V63.2785ZM79.0838 59.8819H86.4231V57.6568H79.0838V59.8819ZM79.0838 49.4973H95.8314V47.4284H79.0838V49.4973ZM79.0838 52.8933H95.8314V50.8638H79.0838V52.8933ZM79.0838 39.0738H95.8314V37.0443H79.0838V39.0738ZM79.0838 56.4854H86.4231V54.2603H79.0838V56.4854ZM40.5133 49.6535V49.4973V49.6535Z" fill="#495057"/>
</svg>
