<svg width="50" height="50" viewBox="0 0 50 50" fill="none" xmlns="http://www.w3.org/2000/svg">
<path d="M50 25.0044C50 22.0975 45.852 19.3427 39.4925 17.6344C40.96 11.9459 40.3078 7.42019 37.4338 5.97124C36.7713 5.63136 35.9967 5.47037 35.1508 5.47037V7.46492C35.6196 7.46492 35.9967 7.54541 36.3127 7.69746C37.6987 8.39511 38.3 11.0515 37.8312 14.4682C37.7191 15.3089 37.5357 16.1944 37.3115 17.0978C35.3139 16.6684 33.1329 16.3375 30.8398 16.1229C29.4639 14.4682 28.0371 12.9656 26.6001 11.6508C29.9225 8.9407 33.0412 7.45597 35.161 7.45597V5.46143C32.3583 5.46143 28.6894 7.21448 24.9796 10.2555C21.2699 7.23237 17.6009 5.4972 14.7982 5.4972V7.49175C16.9079 7.49175 20.0367 8.96753 23.3592 11.6597C21.9323 12.9745 20.5055 14.4682 19.15 16.1229C16.8467 16.3375 14.6657 16.6684 12.6682 17.1067C12.4338 16.2123 12.2605 15.3447 12.1382 14.5129C11.6592 11.0962 12.2503 8.43983 13.6262 7.73324C13.9319 7.57225 14.3294 7.50069 14.7982 7.50069V5.50615C13.9421 5.50615 13.1675 5.66714 12.4949 6.00702C9.63106 7.45597 8.98899 11.9728 10.4668 17.6434C4.1276 19.3606 0 22.1065 0 25.0044C0 27.9112 4.14798 30.666 10.5075 32.3744C9.03995 38.0629 9.69221 42.5886 12.5662 44.0375C13.2287 44.3774 14.0033 44.5384 14.8594 44.5384C17.662 44.5384 21.331 42.7854 25.0408 39.7444C28.7505 42.7675 32.4195 44.5026 35.2222 44.5026C36.0783 44.5026 36.8528 44.3416 37.5255 44.0018C40.3893 42.5528 41.0314 38.036 39.5536 32.3654C45.8724 30.6571 50 27.9023 50 25.0044ZM36.7305 19.0386C36.3534 20.1924 35.8846 21.382 35.3547 22.5716C34.9368 21.8561 34.4986 21.1405 34.0196 20.425C33.5508 19.7095 33.0514 19.0118 32.552 18.3321C33.9992 18.5199 35.3954 18.7524 36.7305 19.0386ZM32.0628 28.5642C31.2678 29.7716 30.4525 30.9165 29.6066 31.9808C28.0881 32.0971 26.5491 32.1597 25 32.1597C23.4611 32.1597 21.9221 32.0971 20.4138 31.9898C19.5679 30.9254 18.7424 29.7895 17.9474 28.591C17.1728 27.4193 16.4696 26.2297 15.8276 25.0312C16.4594 23.8327 17.1729 22.6342 17.9372 21.4625C18.7322 20.255 19.5475 19.1102 20.3934 18.0458C21.9119 17.9296 23.4509 17.867 25 17.867C26.5389 17.867 28.0779 17.9296 29.5862 18.0369C30.4321 19.1013 31.2576 20.2372 32.0526 21.4357C32.8272 22.6074 33.5304 23.7969 34.1724 24.9954C33.5304 26.194 32.8271 27.3925 32.0628 28.5642ZM35.3547 27.4014C35.905 28.5999 36.3738 29.7985 36.7611 30.9612C35.426 31.2474 34.0196 31.4889 32.5622 31.6767C33.0616 30.988 33.5609 30.2814 34.0298 29.557C34.4986 28.8414 34.9368 28.117 35.3547 27.4014ZM25.0204 36.9448C24.0726 36.0862 23.1247 35.1292 22.1871 34.0827C23.1044 34.1185 24.042 34.1453 24.9898 34.1453C25.9478 34.1453 26.8956 34.1274 27.8231 34.0827C26.9058 35.1292 25.958 36.0862 25.0204 36.9448ZM17.4378 31.6767C15.9906 31.4889 14.5944 31.2564 13.2593 30.9701C13.6364 29.8163 14.1052 28.6268 14.6351 27.4372C15.053 28.1527 15.4912 28.8683 15.9702 29.5838C16.4492 30.2993 16.9384 30.997 17.4378 31.6767ZM24.9694 13.064C25.9172 13.9226 26.8651 14.8796 27.8027 15.9261C26.8854 15.8903 25.9478 15.8635 25 15.8635C24.042 15.8635 23.0942 15.8814 22.1667 15.9261C23.084 14.8796 24.0318 13.9226 24.9694 13.064ZM17.4276 18.3321C16.9283 19.0208 16.4289 19.7273 15.96 20.4518C15.4912 21.1674 15.053 21.8829 14.6351 22.5984C14.0848 21.3999 13.616 20.2014 13.2287 19.0386C14.5638 18.7614 15.9702 18.5199 17.4276 18.3321ZM8.20424 29.5301C4.59641 28.1796 2.26254 26.4086 2.26254 25.0044C2.26254 23.6002 4.59641 21.8203 8.20424 20.4787C9.08072 20.1477 10.0387 19.8526 11.0273 19.5753C11.6082 21.3283 12.3726 23.153 13.3204 25.0223C12.3828 26.8827 11.6286 28.6983 11.0579 30.4424C10.0489 30.1652 9.09091 29.8611 8.20424 29.5301ZM13.6873 42.3113C12.3013 41.6137 11.7 38.9573 12.1688 35.5406C12.2809 34.6998 12.4643 33.8144 12.6885 32.911C14.6861 33.3403 16.8671 33.6713 19.1602 33.8859C20.5361 35.5406 21.9629 37.0432 23.3999 38.358C20.0775 41.0681 16.9588 42.5528 14.839 42.5528C14.3804 42.5439 13.9931 42.4634 13.6873 42.3113ZM37.8618 35.4959C38.3408 38.9125 37.7497 41.569 36.3738 42.2755C36.0681 42.4365 35.6706 42.5081 35.2018 42.5081C33.0921 42.5081 29.9633 41.0323 26.6409 38.3401C28.0677 37.0253 29.4945 35.5317 30.85 33.877C33.1533 33.6623 35.3343 33.3314 37.3318 32.8931C37.5662 33.7965 37.7497 34.6641 37.8618 35.4959ZM41.7856 29.5301C40.9091 29.8611 39.9511 30.1562 38.9625 30.4335C38.3816 28.6804 37.6172 26.8558 36.6694 24.9865C37.607 23.1261 38.3612 21.3105 38.9319 19.5663C39.9409 19.8436 40.8989 20.1477 41.7958 20.4787C45.4036 21.8292 47.7375 23.6002 47.7375 25.0044C47.7273 26.4086 45.3934 28.1885 41.7856 29.5301Z" fill="#495057"/>
<path d="M24.9896 29.0919C27.5619 29.0919 29.6472 27.2619 29.6472 25.0045C29.6472 22.747 27.5619 20.917 24.9896 20.917C22.4173 20.917 20.332 22.747 20.332 25.0045C20.332 27.2619 22.4173 29.0919 24.9896 29.0919Z" fill="#495057"/>
</svg>
