<svg width="100" height="100" viewBox="0 0 100 100" fill="none" xmlns="http://www.w3.org/2000/svg">
<g clip-path="url(#clip0_1913_19)">
<path d="M85.4304 93.9088V99.9881H87.9518V95.9405H97.1287V99.9881H99.6483V93.9194L85.4304 93.9088ZM87.6709 91.9423H97.3662C98.7129 91.7353 99.7143 90.8165 99.9967 89.9275H85.0407C85.3202 90.8167 86.3364 91.7353 87.6709 91.9423ZM77.794 99.992C79.0653 99.5753 79.7492 98.8545 80.0111 98.011H68.7022L68.7093 89.9325L66.1743 89.9381V99.992H77.794ZM47.3225 91.9151H56.2766C57.6264 91.6119 58.76 90.8167 59.0363 89.9353H44.8126V95.8767H56.4542V97.9617L47.3225 97.9672C45.8916 98.2757 44.678 99.0187 44.0727 100L44.8126 99.9895H58.9555V93.9013H47.3225V91.9151ZM25.2181 91.9343H34.9102C36.2587 91.7265 37.2609 90.8084 37.5418 89.9187H22.5865C22.8657 90.8084 23.8826 91.7265 25.2181 91.9343ZM25.2181 95.9078H34.9102C36.2587 95.7022 37.2609 94.7833 37.5418 93.893H22.5865C22.8657 94.7836 23.8826 95.7022 25.2181 95.9078ZM25.2181 99.9909H34.9102C36.2587 99.7836 37.2609 98.865 37.5418 97.9758H22.5865C22.8657 98.8653 23.8826 99.7836 25.2181 99.9909ZM0.00341797 89.9431C0.29478 90.8217 1.27867 91.7198 2.62855 91.9448H6.70834L6.91646 92.0083V99.9684H9.46409V92.0083L9.69553 91.9448H13.7789C15.1439 91.6729 16.1066 90.8217 16.3929 89.9431V89.9237H0.00341797V89.9431Z" fill="#495057"/>
<path d="M50.005 70.0542L62.7345 14.6996C74.868 14.6996 78.6952 15.7284 79.2478 19.9274C79.2478 19.9274 87.3873 17.5808 91.4926 12.815C75.4727 7.07529 59.3763 6.81644 59.3763 6.81644L49.9838 15.6618L50.005 15.6607L40.6125 6.81505C40.6125 6.81505 24.5158 7.07418 8.49805 12.8139C12.5997 17.5797 20.7424 19.9263 20.7424 19.9263C21.2983 15.727 25.1208 14.6982 37.1728 14.6916L50.005 70.0542Z" fill="#495057"/>
<path d="M50 4.2615C62.9498 4.18492 77.7724 5.81045 92.9462 10.9239C94.9742 8.10155 95.4956 6.85418 95.4956 6.85418C78.9084 1.78007 63.3747 0.0435734 49.9982 1.52588e-05C36.6224 0.0435734 21.0894 1.78035 4.50439 6.85418C4.50439 6.85418 5.24428 8.39064 7.05202 10.9239C22.223 5.81045 37.048 4.18492 49.9982 4.2615H50Z" fill="#495057"/>
</g>
<defs>
<clipPath id="clip0_1913_19">
<rect width="100" height="100" fill="white"/>
</clipPath>
</defs>
</svg>
