<svg width="100" height="100" viewBox="0 0 100 100" fill="none" xmlns="http://www.w3.org/2000/svg">
<path fill-rule="evenodd" clip-rule="evenodd" d="M10 0H90C95.5232 0 100 4.4768 100 10V90C100 95.5232 95.5232 100 90 100H10C4.4768 100 0 95.5232 0 90V10C0 4.4768 4.4768 0 10 0Z" fill="#495057"/>
<path fill-rule="evenodd" clip-rule="evenodd" d="M62.7919 92C65.8347 92 68.3015 89.5532 68.3015 86.5352C68.3015 83.5172 65.8347 81.07 62.7919 81.07H61.9619C65.0047 81.07 67.4715 83.5172 67.4715 86.5352C67.4715 89.5532 65.0047 92 61.9619 92H62.7919Z" fill="#495057"/>
<path fill-rule="evenodd" clip-rule="evenodd" d="M61.8869 81.07H61.0569C58.0141 81.07 55.5469 83.5172 55.5469 86.5352C55.5469 89.5532 58.0141 92 61.0569 92H61.8869C58.8437 92 56.3769 89.5532 56.3769 86.5352C56.3769 83.5172 58.8437 81.07 61.8869 81.07Z" fill="#495057"/>
<path d="M61.9245 89.1924C63.4044 89.1924 64.6041 88.0027 64.6041 86.5352C64.6041 85.0677 63.4044 83.878 61.9245 83.878C60.4446 83.878 59.2449 85.0677 59.2449 86.5352C59.2449 88.0027 60.4446 89.1924 61.9245 89.1924Z" fill="#495057"/>
<path fill-rule="evenodd" clip-rule="evenodd" d="M20 78.6V81.37H23.2448V91.9252H26.4908V81.4448H29.132L30.0376 78.6H20ZM46.566 78.6V81.37H49.8108V91.9252H53.0568V81.4448H55.698L56.6036 78.6H46.566ZM30.642 80.172C30.642 79.304 31.3504 78.6 32.2256 78.6C33.1016 78.6 33.8108 79.304 33.8108 80.172C33.8108 81.04 33.102 81.744 32.2256 81.744C31.3504 81.7436 30.642 81.04 30.642 80.172ZM30.642 82.8672H33.8108V91.9252H30.642V82.8672ZM35.1696 78.6V91.9252H38.3396V88.482L39.3208 87.5828L42.4148 92H45.8108L41.3576 85.562L45.3576 81.6688H41.5088L38.3396 84.8128V78.6H35.1696ZM69.3576 78.6V91.9252H72.528V88.482L73.5088 87.5828L76.6036 92H80L75.5468 85.562L79.5468 81.6688H75.698L72.528 84.8128V78.6H69.3576Z" fill="white"/>
<path fill-rule="evenodd" clip-rule="evenodd" d="M64.4667 32.4744C68.8443 35.602 74.2075 37.4424 79.9995 37.4424V26.302C78.9033 26.3024 77.81 26.1881 76.7375 25.9608V34.73C70.9459 34.73 65.5835 32.8896 61.2047 29.762V52.496C61.2047 63.8688 51.9807 73.0876 40.6027 73.0876C36.3575 73.0876 32.4115 71.8048 29.1335 69.6048C32.8747 73.428 38.0919 75.8 43.8639 75.8C55.2427 75.8 64.4671 66.5812 64.4671 55.208V32.4744H64.4667ZM68.4907 21.2352C66.2535 18.7924 64.7847 15.6352 64.4667 12.1448V10.712H61.3755C62.1535 15.148 64.8075 18.938 68.4907 21.2352ZM36.3299 60.878C35.0801 59.24 34.4045 57.236 34.4075 55.1756C34.4075 49.974 38.6267 45.7568 43.8319 45.7568C44.8019 45.7561 45.7661 45.9049 46.6907 46.198V34.8088C45.6104 34.6608 44.5201 34.5981 43.4299 34.6212V43.486C42.5049 43.1929 41.5403 43.0441 40.5699 43.0448C35.3647 43.0448 31.1459 47.262 31.1459 52.464C31.1459 56.142 33.2547 59.3268 36.3299 60.878Z" fill="#495057"/>
<path fill-rule="evenodd" clip-rule="evenodd" d="M61.2049 29.762C65.5837 32.8896 70.9461 34.73 76.7377 34.73V25.9608C73.5049 25.2728 70.6429 23.584 68.4909 21.2352C64.8077 18.938 62.1537 15.148 61.3757 10.712H53.2561V55.2076C53.2377 60.3948 49.0257 64.5948 43.8317 64.5948C40.7709 64.5948 38.0517 63.1368 36.3297 60.878C33.2545 59.3268 31.1457 56.142 31.1457 52.464C31.1457 47.262 35.3645 43.0448 40.5697 43.0448C41.5669 43.0448 42.5281 43.2 43.4297 43.486V34.6212C32.2517 34.852 23.2617 43.9808 23.2617 55.208C23.2617 60.8124 25.5005 65.8932 29.1337 69.6052C32.4117 71.8052 36.3577 73.088 40.6029 73.088C51.9809 73.088 61.2049 63.8688 61.2049 52.4964V29.762Z" fill="white"/>
<path fill-rule="evenodd" clip-rule="evenodd" d="M76.7376 25.9608V23.5896C73.8222 23.594 70.9643 22.778 68.4908 21.2348C70.6803 23.6307 73.5635 25.283 76.7376 25.9608ZM61.3756 10.712C61.3013 10.2881 61.2443 9.86135 61.2048 9.4328V8H49.9936V52.496C49.9756 57.6828 45.764 61.8828 40.5696 61.8828C39.0444 61.8828 37.6048 61.5212 36.3296 60.878C38.0516 63.1368 40.7708 64.5948 43.8316 64.5948C49.0252 64.5948 53.2376 60.3948 53.256 55.2076V10.712H61.3756ZM43.43 34.6212V32.0968C42.4932 31.9687 41.5487 31.9047 40.6032 31.9052C29.224 31.9052 20 41.1244 20 52.496C20 59.6256 23.6252 65.9088 29.134 69.6048C25.5008 65.8928 23.262 60.812 23.262 55.2076C23.262 43.9808 32.2516 34.852 43.43 34.6212Z" fill="#495057"/>
<path fill-rule="evenodd" clip-rule="evenodd" d="M61.9615 92C65.0043 92 67.4715 89.5532 67.4715 86.5352C67.4715 83.5172 65.0043 81.07 61.9615 81.07H61.8863C58.8435 81.07 56.3767 83.5172 56.3767 86.5352C56.3767 89.5532 58.8435 92 61.8863 92H61.9615ZM59.2447 86.5352C59.2447 85.0672 60.4447 83.878 61.9247 83.878C63.4035 83.878 64.6035 85.0672 64.6035 86.5352C64.6035 88.0032 63.4035 89.1932 61.9247 89.1932C60.4447 89.1928 59.2447 88.0032 59.2447 86.5352Z" fill="white"/>
</svg>
